<svg id="Component_33_1" data-name="Component 33 – 1" xmlns="http://www.w3.org/2000/svg" xmlns:xlink="http://www.w3.org/1999/xlink" width="350" height="22.014" viewBox="0 0 350 22.014">
  <defs>
    <clipPath id="clip-path">
      <rect id="Rectangle_1079" data-name="Rectangle 1079" width="350" height="22.014" fill="#6ca643"/>
    </clipPath>
  </defs>
  <g id="Group_3880" data-name="Group 3880" clip-path="url(#clip-path)">
    <path id="Path_16296" data-name="Path 16296" d="M7.6,8.979c2.774.02,5.547-.1,8.318-.163,1.128-.026,2.257-.069,3.383-.111l14.907-.54q8.914-.322,17.825-.686L77.49,6.444c1.945-.079,3.892-.133,5.837-.2q7.418-.257,14.834-.509L113,5.23c1.935-.066,3.872-.151,5.808-.2q11.835-.272,23.67-.543l14.554-.334c1.9-.043,3.8-.108,5.7-.128q11.438-.121,22.88-.251l22.578-.246c1.987-.022,3.976-.011,5.962-.017l14.741-.042q11.459-.031,22.922-.064c2.5-.009,5,.012,7.5.018L275,3.465l1.3,0q-17.665.174-35.331.36l-14.752.159c-2.12.023-4.245.029-6.366.068q-10.671.2-21.343.421l-24.67.486c-1.382.028-2.763.085-4.143.132l-13.137.441q-13.322.446-26.647.894c-1.315.045-2.627.112-3.941.178q-6.507.326-13.015.655Q101.3,7.851,89.642,8.437c-2.142.109-4.283.262-6.422.394l-14.928.914c-6.325.389-12.651.764-18.974,1.166q-13.2.837-26.4,1.68l-6.334.4c-3.783.24-7.555.589-11.33.893-.4.031-.738.221-.738.538s.335.526.738.539q2.068.066,4.139.13a1.546,1.546,0,0,0-.27.839c0,1.026,1.233,2.04,2.707,1.974,10.79-.49,21.576-1.023,32.377-1.4l28.127-.975,31.1-1.08,9.791-.34c.941-.032,1.884-.076,2.826-.093q25.048-.486,50.1-.958l26.771-.511q4.837-.093,9.671-.152,25.621-.292,51.24-.584l21.954-.257c6.249-.073,12.5-.1,18.743-.275L310,10.856c2.575-.07,5.156-.116,7.728-.234q8.786-.4,17.573-.827l-.013.016a1.375,1.375,0,0,0-.245,1.37,1.985,1.985,0,0,0,1.119,1.061,3.1,3.1,0,0,0,1.88.179q1.914-.553,3.815-1.134l-.078.025.28-.086.326-.1-.119.036,2.026-.623c.707-.215,1.415-.432,2.117-.657.767-.243,1.5-.54,2.24-.827A1.961,1.961,0,0,0,350,7.345a1.6,1.6,0,0,0-.372-1A2.665,2.665,0,0,0,348,5.435c-.654-.084-1.307-.146-1.965-.208-.143-.012-.291-.018-.441-.018-.445,0-.908.046-1.332.067-.994.051-1.983.159-2.978.212l-2.433.127q-3.278.174-6.553.346c-.564.03-1.129.054-1.693.082a1.456,1.456,0,0,0,.438-.585,1.251,1.251,0,0,0,.172-.548c.023-.135.05-.271.076-.4a1.158,1.158,0,0,0-.123-.5l.171-.055a2.512,2.512,0,0,0,.982-.718,1.588,1.588,0,0,0,.376-1.009,1.587,1.587,0,0,0-.376-1.008l-.428-.4a3.107,3.107,0,0,0-1.211-.514A9.739,9.739,0,0,0,328.07,0c-.729,0-1.464.037-2.186.044l-3.151.023c-1.486.011-2.972.027-4.458.032Q312.387.12,306.5.143c-3.693.015-7.387.012-11.08.011q-5.035,0-10.069.006C271.969.2,258.59.218,245.211.317l-30.1.221q-6.728.053-13.454.154L171.5,1.156l-8.6.133c-1.662.026-3.325.089-4.989.135L128.1,2.247,119,2.5c-1.7.047-3.4.129-5.1.195Q99.1,3.274,84.3,3.852q-7.644.3-15.279.658-13.078.6-26.156,1.2c-7.554.345-15.111.644-22.666.967L16.6,6.831c-1.933.083-3.872.139-5.808.2-1.717.056-3.443.09-5.165.058a1.19,1.19,0,0,0-1.1-.562c-1.11.065-2.219.152-3.327.239A1.246,1.246,0,0,0,.04,7.409c-.168.449.2.966.84,1.077.481.085.96.172,1.444.252s.975.1,1.455.132c1.269.082,2.545.1,3.819.109m305.28-3.051,4.866,0a2.023,2.023,0,0,0,.654.693c-.628.031-1.255.062-1.883.079l-3.544.1q-7.743.212-15.483.423c-2.363.065-4.724.16-7.087.186l-11.076.127q-12.653.147-25.309.293-24.565.289-49.131.566c-11.728.136-23.451.4-35.175.627l-53,1.024c-3.542.069-7.084.234-10.621.357q-15.042.526-30.081,1.051L46.477,12.48l-2.733.1q3.978-.234,7.959-.457L79.5,10.57l9.707-.54c1.669-.093,3.341-.151,5.012-.226l28.9-1.276c1.884-.085,3.768-.195,5.653-.248l8.143-.23,29.8-.842,6.557-.186c.575-.016,1.152-.017,1.727-.026l4.605-.067q14.933-.224,29.863-.444c4.587-.068,9.173-.147,13.761-.175,14.8-.087,29.6-.2,44.4-.247,15.081-.05,30.162-.126,45.243-.135" transform="translate(0 0)" fill="#6ca643"/>
    <path id="Path_16297" data-name="Path 16297" d="M21.37,22.565a.54.54,0,1,0-.54.54.546.546,0,0,0,.54-.54" transform="translate(-1.005 -1.091)" fill="#6ca643"/>
  </g>
</svg>
