<svg xmlns="http://www.w3.org/2000/svg" width="160" height="177" viewBox="0 0 160 177">
  <g id="Artboard_1" data-name="Artboard 1" transform="translate(18 18)">
    <rect id="Rectangle_1" data-name="Rectangle 1" width="160" height="177" transform="translate(-18 -18)" fill="#6ca643"/>
    <g id="Group_1" data-name="Group 1" transform="translate(27.901 30.257)">
      <path id="Path_1" data-name="Path 1" d="M131.711,95.756c-4.356-1.886-7.215-.973-7.215-.973,1.353,1.778-2.528,5.98-2.528,5.98s.662,1.116-.138,3.57a5.038,5.038,0,0,1,1.264,2.716c0,.173-.015.346.069.158l6.385.039c.538-1.18.76-2.247-.637-2.415a4.944,4.944,0,0,1-2.2-.81c-.459-1.032,1.393-5.4,1.393-5.4,2.785-1.5,3.481-2.079,3.615-2.869Z" transform="translate(-98.679 -62.685)" fill="#fff"/>
      <path id="Path_2" data-name="Path 2" d="M123.863,71.314a4.844,4.844,0,0,0,2.2.81c1.4.163,1.175,1.235.637,2.415,0,0-3.97-.03-6.272-.02-.089-.746-.667-2.528-1.363-2.978,1.121-2.948.306-3.8.306-3.8,1.244-1.319,1.941-4.83,1.941-4.83-5.417,2.286-13.106-1.7-13.106-1.7a14.438,14.438,0,0,0-8.884-.543,6.964,6.964,0,0,0-2.351,1.2c-.9.528-5.635,3.911-9.664,4.114,0,0-4.217,4.617-2.775,5.407l.207.069a4.752,4.752,0,0,0,2.084.691c1.4.163,1.175,1.23.637,2.415l-6.385-.04h-.583s-.281-2.375-1-2.9c0,0,3.679-6.326,3.244-7.511,0,0,9.383-1.852,11.165-11.012a28.78,28.78,0,0,1-2.563,3.062l-.272.3c-.2.252-5.679,5.881-10.84,6.01-2.4.059-4-.514-4.78-1.709s-.657-2.874.356-5.012l.035-.074.049-.064a13.524,13.524,0,0,0,1.23-1.872,13.836,13.836,0,0,1,.519-2.025,6.936,6.936,0,0,1,3.951-3.723,6.79,6.79,0,0,1,2.217-.193,2.284,2.284,0,0,0-1.244,1.96c-.2,1.575-.578,4.953-2.938,5.2a3.819,3.819,0,0,0-1.911.528,2.118,2.118,0,0,0-.716,1l.089-.138c-.543,1.146-1.057,2.7-.449,3.64s2.272.978,3.561.948c4.494-.109,8.365-5.5,8.41-5.561l.677-.864c.459-.573.849-1.091,1.16-1.491.617-.8,1.714-2.306,1.714-2.306a6.151,6.151,0,0,1,4.933-2.672c1.511-.084,1.7.44,4.237.785,2.316.311,2.548.044,4.375.2a3.5,3.5,0,0,0,2.509,1.837v.02a3.393,3.393,0,0,0,3.072,3.3,2.862,2.862,0,0,0,2.4,2.188,2.349,2.349,0,0,0-.025.262,3.073,3.073,0,0,0,6.054.741,6.231,6.231,0,0,1-.859.844,1.335,1.335,0,0,0-.222.148,2.658,2.658,0,0,1-.973.178,2.092,2.092,0,0,1-2.158-2.01,1.766,1.766,0,0,1,.114-.6l.262-.765-.8.069c-.039,0-.069.01-.1.01s-.059,0-.074,0a1.793,1.793,0,0,1-1.837-1.679l-.01-.523-.523.01h-.059a2.357,2.357,0,0,1-2.415-2.272,1.947,1.947,0,0,1,.044-.375l.1-.588-.6-.03a2.73,2.73,0,0,1-2.252-2.568h-.114v-.119c-9.3.647-13.338-2.4-14.617-6.84-.849-2.958-.459-5.96,1.778-7.23-.835,5.585,4.133,6.074,4.133,6.074-3.319-1.906-2.612-8.509.968-9.106-2.163,2.8.291,4.553.291,4.553.119-4.4,4.8-4.519,4.8-4.519s-3.383,1.412-1.837,4.375c2.341,4.494,13.141,1.511,13.141,1.511,9.378-2.227,10.237,3.7,10.237,3.7.237,1.373-.361,2.444-.751,3.852a4.885,4.885,0,0,0,2.469,4.919c.158.089.316.173.474.257a5.412,5.412,0,0,0,1.778.281c-.04-.064-4.084-2.859-2.612-6.2.588-1.338,1.141-2.879.928-3.733a1.957,1.957,0,0,0-.553-1.131,25.646,25.646,0,0,1,6.42-2.726s4.1-4.4,5.353-4.79a6.022,6.022,0,0,1-.76,3.427,3.927,3.927,0,0,1,2.173.262c.568.217.879,1.1.879,1.1s2.993.5,2.9,2.657-2.109,3.23-2.938,3.536c0,0,1.625-2.681-3.472-.968s-5.472,7.427-5.472,7.427,5.812,4.988-.607,11.951-7.575,7.417-7.575,7.417a17.192,17.192,0,0,0-1.333,3.22.875.875,0,0,0,.43.943Zm16.119-34.306a1.059,1.059,0,1,0-1.062-1.062A1.059,1.059,0,0,0,139.981,37.008Z" transform="translate(-74.949 -30.01)" fill="#fff"/>
    </g>
    <g id="Group_2" data-name="Group 2" transform="translate(8.237 83.886)">
      <path id="Path_3" data-name="Path 3" d="M36.14,148.329v-.054a9.376,9.376,0,0,1,9.368-9.664,9.851,9.851,0,0,1,6.968,2.484l-1.363,1.6a7.947,7.947,0,0,0-5.684-2.133c-4.138,0-7.1,3.5-7.1,7.659v.054c0,4.459,2.854,7.768,7.393,7.768a8.835,8.835,0,0,0,5.393-1.867v-4.642H45.429v-1.9h7.714v7.447a11.33,11.33,0,0,1-7.5,2.854c-5.872,0-9.5-4.272-9.5-9.61Z" transform="translate(-35.641 -138.61)" fill="#fff"/>
      <path id="Path_4" data-name="Path 4" d="M80.19,139.27h8.035a7.388,7.388,0,0,1,5.314,1.867,5.162,5.162,0,0,1,1.442,3.684v.054c0,3.1-2.133,4.909-5.072,5.447l5.738,7.635H93.059L87.642,150.7H82.3v7.259H80.195V139.275Zm7.847,9.526c2.8,0,4.8-1.442,4.8-3.842V144.9c0-2.3-1.763-3.684-4.775-3.684H82.3v7.58h5.738Z" transform="translate(-57.938 -138.944)" fill="#fff"/>
      <path id="Path_5" data-name="Path 5" d="M119.64,139.27h2.109v18.682H119.64Z" transform="translate(-77.907 -138.944)" fill="#fff"/>
      <path id="Path_6" data-name="Path 6" d="M134.99,139.27h13.427v1.951H137.1v6.672h10.114v1.921H137.1v8.138H134.99Z" transform="translate(-85.676 -138.944)" fill="#fff"/>
      <path id="Path_7" data-name="Path 7" d="M170.45,139.27h13.427v1.951H172.559v6.672h10.114v1.921H172.559v8.138H170.45Z" transform="translate(-103.625 -138.944)" fill="#fff"/>
      <path id="Path_8" data-name="Path 8" d="M206.28,139.27h2.109v18.682H206.28Z" transform="translate(-121.761 -138.944)" fill="#fff"/>
      <path id="Path_9" data-name="Path 9" d="M221.625,139.27H223.6l11.768,14.973V139.27h2.054v18.681h-1.684l-12.064-15.319v15.319H221.62V139.27Z" transform="translate(-129.526 -138.944)" fill="#fff"/>
      <path id="Path_10" data-name="Path 10" d="M35.135,202.076l1.22-1.447a8.3,8.3,0,0,0,5.98,2.464c2.42,0,3.886-1.244,3.886-2.963v-.049c0-1.62-.874-2.543-4.533-3.314-4.01-.874-5.852-2.168-5.852-5.032v-.049c0-2.741,2.415-4.756,5.728-4.756a9.082,9.082,0,0,1,6.128,2.143l-1.146,1.521a7.669,7.669,0,0,0-5.032-1.891c-2.267,0-3.714,1.244-3.714,2.815v.049c0,1.644.9,2.568,4.731,3.388,3.886.849,5.679,2.267,5.679,4.933v.049c0,2.988-2.489,4.933-5.956,4.933a10.216,10.216,0,0,1-7.126-2.79Z" transform="translate(-35.13 -163.068)" fill="#fff"/>
      <path id="Path_11" data-name="Path 11" d="M68.18,195.9v-.049A8.785,8.785,0,0,1,77,186.83a9.069,9.069,0,0,1,6.8,2.765l-1.343,1.447a7.576,7.576,0,0,0-5.481-2.39,6.838,6.838,0,0,0-6.751,7.151v.049a6.881,6.881,0,0,0,6.751,7.2,7.584,7.584,0,0,0,5.63-2.514l1.294,1.269a9.085,9.085,0,0,1-6.973,3.067,8.7,8.7,0,0,1-8.746-8.968Z" transform="translate(-51.859 -163.018)" fill="#fff"/>
      <path id="Path_12" data-name="Path 12" d="M106.97,187.43h1.97v7.748H119V187.43h1.97v17.437H119V197.02H108.94v7.847h-1.97Z" transform="translate(-71.493 -163.321)" fill="#fff"/>
      <path id="Path_13" data-name="Path 13" d="M143.74,195.9v-.049a8.894,8.894,0,1,1,17.788-.049v.049a8.894,8.894,0,1,1-17.788.049Zm15.743,0v-.049a6.933,6.933,0,0,0-6.874-7.2,6.851,6.851,0,0,0-6.825,7.151v.049a6.933,6.933,0,0,0,6.874,7.2A6.851,6.851,0,0,0,159.483,195.9Z" transform="translate(-90.105 -163.018)" fill="#fff"/>
      <path id="Path_14" data-name="Path 14" d="M186.62,195.9v-.049a8.894,8.894,0,1,1,17.788-.049v.049a8.894,8.894,0,1,1-17.788.049Zm15.743,0v-.049a6.933,6.933,0,0,0-6.874-7.2,6.851,6.851,0,0,0-6.825,7.151v.049a6.933,6.933,0,0,0,6.874,7.2A6.851,6.851,0,0,0,202.363,195.9Z" transform="translate(-111.81 -163.018)" fill="#fff"/>
      <path id="Path_15" data-name="Path 15" d="M231.06,187.43h1.97v15.62h9.812v1.817H231.06Z" transform="translate(-134.304 -163.321)" fill="#fff"/>
    </g>
  </g>
</svg>
