<svg xmlns="http://www.w3.org/2000/svg" xmlns:xlink="http://www.w3.org/1999/xlink" width="65" height="65" viewBox="0 0 65 65">
  <defs>
    <clipPath id="clip-path">
      <rect id="Rectangle_1072" data-name="Rectangle 1072" width="65" height="65" transform="translate(545 1474)" fill="#757782" stroke="#757782" stroke-width="1"/>
    </clipPath>
  </defs>
  <g id="Mask_Group_3" data-name="Mask Group 3" transform="translate(-545 -1474)" clip-path="url(#clip-path)">
    <g id="club" transform="translate(543.337 1472.348)">
      <path id="Path_15801" data-name="Path 15801" d="M52.372,2.32a.833.833,0,0,0-.5.477.754.754,0,0,0,.059.663A13.262,13.262,0,0,0,49.7,4.524C46.758,3.512,7.058,3.812,11.3,7.905c12-1.675,24.09-2.744,36.232-1.893-9.245,7.092-1.643,20.36,9.807,17.481a226.6,226.6,0,0,1-.033,25.3c-.269,3.139-.82,7.018-4.315,8.456a10.394,10.394,0,0,0-6.578-10.1,8.338,8.338,0,0,0,4.46-8.129c-.407-3.686-4.178-7.971-8.5-7.322a7.856,7.856,0,0,0-4.572-4.613c6.932-3.8,4.213-15.156-3.991-15.289a1.2,1.2,0,0,0-1.26,1.071A7.617,7.617,0,0,0,27.92,26.815a18.062,18.062,0,0,0-5.241,3.227,8.613,8.613,0,0,0-3.76-2.961c6.932-3.8,4.213-15.156-3.991-15.289a1.2,1.2,0,0,0-1.26,1.071A7.617,7.617,0,0,0,9.045,26.815a18.122,18.122,0,0,0-4.606,2.691,89.329,89.329,0,0,1,1.137-12.76c.425-2.568.8-5.884,3.215-7.566,1.1-.765.057-2.511-1.1-1.749-4.958,3.652-4.451,10.4-5.348,15.714a86.248,86.248,0,0,0,2.4,29.611c1.044,5.393,2.1,7.41,8.292,8.1a86.271,86.271,0,0,0,16.66,1.262c12.512-.985,30.982,1.334,29.877-15.245.75-7.981.324-16.121-.091-24.113A11.42,11.42,0,0,0,65.767,8.8c-1.783-5.049-7.8-8.712-13.4-6.481ZM42.463,34.368a.832.832,0,0,0,.377-.245c9.652,2.806,4.57,14.98-4.3,10.79A5.536,5.536,0,0,1,35.966,38.9C36.624,36.073,39.633,34.683,42.463,34.368ZM26.908,19.09a6.049,6.049,0,0,1,4.244-4.076c.846-.328,1.924-.123,2.63-.7,5.273,1.53,7.21,6.844,2.914,10.455-4.489,3.262-11.1-.418-9.788-5.678Zm-2.83,12.116a8.886,8.886,0,0,1,5.989-3.341,9.689,9.689,0,0,0,4.783.314c2.274.629,5.246,2.028,5.076,4.588a7.624,7.624,0,0,0-2.25,14.277,12.54,12.54,0,0,0-6.263,5.337,10.115,10.115,0,0,0-5.582-5.237,8.27,8.27,0,0,0-2.1-15.415c.115-.176.23-.352.351-.523Zm-2.195,3.162a.831.831,0,0,0,.377-.245c9.652,2.806,4.57,14.98-4.3,10.79A5.536,5.536,0,0,1,15.386,38.9c.659-2.828,3.667-4.217,6.5-4.533ZM8.033,19.09a6.048,6.048,0,0,1,4.244-4.076c.846-.328,1.924-.123,2.63-.7,5.273,1.53,7.21,6.844,2.914,10.455C13.332,28.03,6.717,24.35,8.033,19.09Zm42.5,38.95c-12.962,2.681-26.228,2.317-39.224.11-1.51-.292-2.595-.7-3.151-2.134-2.719-7.582-3.5-15.688-3.727-23.647a8.873,8.873,0,0,1,6.758-4.5,9.689,9.689,0,0,0,4.783.314,11.064,11.064,0,0,1,2.48.966c1.29.718,2.9,1.969,2.492,3.517A7.626,7.626,0,0,0,17.1,47.045c-3.6,1.169-8.739,6.6-7.032,10.243a.672.672,0,0,0,1.1,0c.75-2.216.689-4.813,2.507-6.654a8.88,8.88,0,0,1,5.721-2.719,9.767,9.767,0,0,0,3.384.165A9.065,9.065,0,0,1,29.9,57.57c-.15,1.483,2.38,1.493,2.5,0-.6-4.94,2.031-9.063,7.572-9.655a9.766,9.766,0,0,0,3.383.165,9.314,9.314,0,0,1,7.178,9.961ZM61.243,18.586c-5.648,5.986-16.961,2.03-15.508-6.243.869-4.217,5.8-7.447,10.208-7.767A.823.823,0,0,0,56.635,4C63.93,4.978,65.991,13.832,61.243,18.586Z" transform="translate(0 0)" fill="#757782"/>
      <path id="Path_15802" data-name="Path 15802" d="M58.462,9.475c-2.035,1.551-3.134,3.478-4.6,5.432-.168.12-.3.076-.536-.091A8.368,8.368,0,0,1,51.413,12.8a.764.764,0,0,0-1.318.77,8.293,8.293,0,0,0,2.086,2.614c2.361,1.961,3.867-1.1,5.305-2.578a15.524,15.524,0,0,1,2.522-2.132,1.271,1.271,0,1,0-1.546-2Z" fill="#757782"/>
    </g>
  </g>
</svg>
