<svg xmlns="http://www.w3.org/2000/svg" xmlns:xlink="http://www.w3.org/1999/xlink" width="65" height="65" viewBox="0 0 65 65">
  <defs>
    <clipPath id="clip-path">
      <rect id="Rectangle_1074" data-name="Rectangle 1074" width="65" height="65" transform="translate(1115 1474)" fill="#757782" stroke="#757782" stroke-width="1"/>
    </clipPath>
  </defs>
  <g id="Mask_Group_5" data-name="Mask Group 5" transform="translate(-1115 -1474)" clip-path="url(#clip-path)">
    <g id="_x32_3" transform="translate(1113.365 1472.365)">
      <path id="Path_15807" data-name="Path 15807" d="M36.271,60.067A.753.753,0,0,0,36,61.549,18.263,18.263,0,0,0,57.371,45.275a.753.753,0,1,0-1.5-.137A16.753,16.753,0,0,1,36.271,60.067Z" transform="translate(-5.646 -7)" fill="#757782"/>
      <path id="Path_15810" data-name="Path 15810" d="M53.533,62.285A22.6,22.6,0,0,0,61.88,40.759,22.681,22.681,0,0,0,49.437,24.671c-.508-.241-1.742-.859-2.686-1.242a8.626,8.626,0,0,0,.348-5.6,34.331,34.331,0,0,0-3.31-7.664C46.7,8.48,49.558,6.835,51.835,5.577a5.7,5.7,0,0,0,.4-2.968l-.028.016c0-.007,0-.014,0-.021a1.341,1.341,0,0,0-1.346-.969c-25.214,1.454-23.49-.319-45.877,15.3a1.24,1.24,0,0,0,.4,2.211l.744,1.307q4.092-.306,8.157-.655l.467,10.231a1.665,1.665,0,0,0-.293.147,1.576,1.576,0,0,0-.727.4A1.725,1.725,0,0,0,13.2,31.91a1.878,1.878,0,0,0,.676,1.283,1.809,1.809,0,0,0-.2.425,55.348,55.348,0,0,0-1.128,6.1,2.252,2.252,0,0,0-.043.9.742.742,0,0,0,.585.6c.391.038.685-.349.872-.7s.4-.767.79-.839a2.873,2.873,0,0,0,.125,1.6.937.937,0,0,0,1.325.451c.3-.242.45-.758.833-.749s.523.541.86.722c.37.2.84-.127.964-.535.172-.566.11-.488-1.82-7.342a3.68,3.68,0,0,0-.3-.79,1.941,1.941,0,0,0,.016-2.65,1.706,1.706,0,0,0-.5-.35l-.474-10.375c.565-.051,1.132-.1,1.7-.149.678,2.564,1.179,4.562,2.248,8.189a6.35,6.35,0,0,0,3.477,4.023,20.964,20.964,0,0,0-.533,25.2C28.382,66.486,43.014,70.307,53.533,62.285Zm-3.382-59.1C42.08,7.551,36.043,11.31,29.11,14.84c-1.471.749.171.115-12.893,1.664,1.717-2.464,6.866-3.556,10.284-5,1.938.591,3.822-.806,3.395-2.07a1.447,1.447,0,0,0-1.88-.775,4.015,4.015,0,0,0-2.224,1.509c-3.814,1.587-7.743,2.172-10.517,5.1a3.467,3.467,0,0,0-.8,1.44c-2.533.3-5.131.608-7.794.877C27.539,3.044,26.069,4.529,50.151,3.185ZM21.2,27.362a23.128,23.128,0,0,0,4.236.394,23.547,23.547,0,0,0,11.722-3.128.753.753,0,1,0-.761-1.3,21.263,21.263,0,0,1-5.469,2.222,21.782,21.782,0,0,1-10.208.173c-.565-1.974-1.133-4.068-1.726-6.36,3.54-.354,7.073-.765,10.606-1.3.756-.115,6.333-3.35,12.223-6.762,1.162,2.7,1.995,5.242,3.062,8.075a4.768,4.768,0,0,1-.937,5.026,21.375,21.375,0,0,1-19.017,6.3l-.316-.062A4.776,4.776,0,0,1,21.2,27.362Zm3.54,4.834a22.555,22.555,0,0,0,17.417-4.271A17.359,17.359,0,0,0,45.1,25.805,19.621,19.621,0,1,1,24.744,32.2Z" fill="#757782"/>
      <path id="Path_15811" data-name="Path 15811" d="M50.976,13.819v4.7a.753.753,0,1,0,1.506,0v-4.7a.753.753,0,1,0-1.506,0Z" fill="#757782"/>
      <path id="Path_15812" data-name="Path 15812" d="M55.64,21.488l3.591-4.424a.753.753,0,0,0-1.169-.949l-3.591,4.424a.753.753,0,1,0,1.169.949Z" fill="#757782"/>
      <path id="Path_15813" data-name="Path 15813" d="M63.8,23.613a.75.75,0,0,0-.893-.58,12.041,12.041,0,0,1-4.939,0,.753.753,0,1,0-.313,1.473,13.524,13.524,0,0,0,5.564,0A.753.753,0,0,0,63.8,23.613Z" fill="#757782"/>
    </g>
  </g>
</svg>
