<svg xmlns="http://www.w3.org/2000/svg" xmlns:xlink="http://www.w3.org/1999/xlink" width="65" height="65" viewBox="0 0 65 65">
  <defs>
    <clipPath id="clip-path">
      <rect id="Rectangle_1073" data-name="Rectangle 1073" width="65" height="65" transform="translate(830 1474)" fill="#757782" stroke="#757782" stroke-width="1"/>
    </clipPath>
  </defs>
  <g id="Mask_Group_4" data-name="Mask Group 4" transform="translate(-830 -1474)" clip-path="url(#clip-path)">
    <g id="_x31_61" transform="translate(825.712 1469.712)">
      <path id="Path_15803" data-name="Path 15803" d="M32.969,64.065H18a4.136,4.136,0,0,0-.609-1.074,3.822,3.822,0,0,0-6.992,2.78c.014,3.021,3.453,4.309,5.8,3.019a3.989,3.989,0,0,0,2.025-3.213H33.21a3.989,3.989,0,0,0,7.444,0h14.63a3.794,3.794,0,0,0,.187.6c.509,2.75,3.671,3.6,5.739,2.44a4.064,4.064,0,0,0,1.99-4.143,4.519,4.519,0,0,0-3.206-3.427l-.028.007a3.8,3.8,0,0,0-4.708,3.012H40.8a4.356,4.356,0,0,0-2.772-3.6V52.517a4.471,4.471,0,0,0,1.267-.4c.486-.085.227.024,4.023-3.524a3.736,3.736,0,0,0,.916-1.137,1.8,1.8,0,0,0-.4-1.959,2.255,2.255,0,0,0-.076-3.178,3.023,3.023,0,0,0,.227-2.929c.884-.252,2.221-1.764,1.793-2.751.141-.891.054-1.807.19-2.7.4-2.66,2.683-4.576,4.274-6.758,1.866-2.557,3.275-6.248,2.633-9.415a16.32,16.32,0,0,0-4.29-8.391A19.558,19.558,0,0,0,41.05,4.889h-.007a15.256,15.256,0,0,0-16.456,5.575A14.475,14.475,0,0,0,23.6,25.425a28.471,28.471,0,0,0,1.9,2.923c3.456,4.877,2.478,5.258,2.991,8.035.35,1.879,1.429,2.9,1.977,3.032a.731.731,0,0,0,.084.066,2.943,2.943,0,0,0-.054,3.206,2.647,2.647,0,0,0,.034,3.079,2.457,2.457,0,0,0,.9,2.8c.008.005.017.007.025.012s.025.021.039.031A27.544,27.544,0,0,0,34.292,51.9a.743.743,0,0,0,.5.446,9.151,9.151,0,0,0,1.04.2v7.983A3.819,3.819,0,0,0,32.969,64.065Zm2.386-13.24a13.706,13.706,0,0,1-1.473-1.605,19.307,19.307,0,0,0,6.186-.169l-.007.008a20.01,20.01,0,0,1-1.708,1.807,5.452,5.452,0,0,1-2.917.066A.721.721,0,0,0,35.355,50.825ZM41.906,39.9c.322.537.656,1.524.162,1.9a.744.744,0,0,0-.283.575.753.753,0,0,0,.266.81,1.146,1.146,0,0,1,.2,1.6.742.742,0,0,0-.215,1.079,1,1,0,0,1,0,1.157,17.422,17.422,0,0,1-9.764.3c-.006,0-.009-.011-.015-.016a1,1,0,0,1-.2-1.314.742.742,0,0,0-.267-1.067,1.088,1.088,0,0,1-.055-1.37,11.969,11.969,0,0,0,5.217.3.756.756,0,1,0-.2-1.5,10.983,10.983,0,0,1-4.8-.294.969.969,0,0,1-.4-.9,4.465,4.465,0,0,1,.492-1.34A38.646,38.646,0,0,0,41.906,39.9ZM34.872,25.175a8.589,8.589,0,0,0,2.837-.234,96.649,96.649,0,0,0,.168,13.714c-.729.015-1.462.015-2.19-.01A74.429,74.429,0,0,0,34.872,25.175Zm1.91,36.735a2.318,2.318,0,1,1-2.318,2.318A2.32,2.32,0,0,1,36.782,61.91Zm-22.629.784a2.318,2.318,0,1,1-2.318,2.318,2.32,2.32,0,0,1,2.318-2.318Zm44.866-.262A2.318,2.318,0,1,1,56.7,64.75,2.32,2.32,0,0,1,59.019,62.432ZM29.65,33.238c-.614-3.37-3.219-5.731-4.723-8.529a12.932,12.932,0,0,1,.891-13.368C30.7,4.5,40.76,3.971,46.7,9.868a13.693,13.693,0,0,1,3.776,12.166c-.583,2.812-2.439,4.422-4.292,6.813-1.2,1.557-3.1,4.651-2.23,7.872a.7.7,0,0,0,.055.111,1.5,1.5,0,0,1-1.218,1.423c-1,.158-2.173.274-3.4.344A95.614,95.614,0,0,1,39.271,24.4c2.984-1.331,6.007-4.959,5.471-8.1a3.263,3.263,0,0,0-2.3-2.661c-3.465-.859-4.3,6.109-4.613,9.7a7.217,7.217,0,0,1-3.155.291c-.281-2.117-.631-4.582-.846-6.3a3.559,3.559,0,0,0-1.1-2.514,2.663,2.663,0,0,0-3.33.215c-2.445,2.157-1.387,8.145,3.916,9.85a75.285,75.285,0,0,1,.868,13.677,21.369,21.369,0,0,1-3.065-.442C29.586,36.827,30.013,35.288,29.65,33.238Zm9.767-10.6c.337-3.473.952-6.379,1.995-7.326a.711.711,0,0,1,.486-.221,1.656,1.656,0,0,1,1.355,1.471C43.614,18.684,41.44,21.453,39.417,22.634Zm-6.33.555c-3.481-1.542-4.18-5.713-2.692-7.026A1.18,1.18,0,0,1,31.782,16C32.281,16.4,32.253,16.972,33.086,23.189Z" fill="#757782"/>
      <path id="Path_15804" data-name="Path 15804" d="M56.191,8.025a.754.754,0,0,0-1.023.31l-1.407,2.634a.756.756,0,0,0,1.334.713L56.5,9.047A.755.755,0,0,0,56.191,8.025Z" fill="#757782"/>
      <path id="Path_15805" data-name="Path 15805" d="M61.526,11.306a.758.758,0,0,0-1.047-.217l-4.41,2.9a.757.757,0,0,0,.415,1.388c.407,0,.212-.045,4.824-3.022A.756.756,0,0,0,61.526,11.306Z" fill="#757782"/>
      <path id="Path_15806" data-name="Path 15806" d="M57.187,17.746a.756.756,0,1,0-.365,1.467L59.964,20a.756.756,0,1,0,.365-1.467Z" fill="#757782"/>
    </g>
  </g>
</svg>
