<svg xmlns="http://www.w3.org/2000/svg" xmlns:xlink="http://www.w3.org/1999/xlink" width="65" height="65" viewBox="0 0 65 65">
  <defs>
    <clipPath id="clip-path">
      <rect id="Rectangle_1071" data-name="Rectangle 1071" width="65" height="65" transform="translate(260 1474)" fill="#757782" stroke="#757782" stroke-width="1"/>
    </clipPath>
  </defs>
  <g id="Mask_Group_2" data-name="Mask Group 2" transform="translate(-260 -1474)" clip-path="url(#clip-path)">
    <g id="forum" transform="translate(257.127 1471.184)">
      <path id="Path_15780" data-name="Path 15780" d="M64.81,55.062c-5.2.565-10.4.589-15.626.96,1.431-5.676-2.069-13.327-7.8-15.414-.347-.122-.592.444-.253.6,6.39,2.862,5.459,9.657,7.451,14.852-7.826.43-15.648.222-23.489.144,0-5.276.995-9.186,5.584-12.424a.73.73,0,0,0-.706-1.212c-4.812,1.815-8.06,8.853-5.842,13.567C15.8,54.3,18.167,61.218,9.664,63.065c1.517-1.781,3.9-5.8,1.356-7.652-1.729-.962-3.737-.383-4.746-2.506C3.607,39.042,4.978,24.489,5.8,10.441c.053-.822-1.333-1.03-1.457-.2A169.347,169.347,0,0,0,3.229,43.5C3.7,48.163,2.551,56.075,8.9,56.8c3.7.248-1.335,6.815-3.3,7.1-.926.406-.207,1.646.637,1.511,4.2-.672,8.638-1.919,11.518-5.272.75-.873,1.427-2.586,2.7-2.733,11.881,1.406,24.134.42,36.053-.6,1.172-.482,10.273-.359,8.3-1.748Z" fill="#757782"/>
      <path id="Path_15781" data-name="Path 15781" d="M67.326,20.462C66.431,8.08,66.5,4.609,52.659,5.291,49.681,5.265-.038,5.435,6.892,9.6c7.8.071,56.266-7.207,57.745.772,2.182,13.532,1.2,28.742-.12,42.409a1.219,1.219,0,1,0,2.405.326c.767-10.868,1.478-21.749.4-32.642Z" fill="#757782"/>
      <path id="Path_15782" data-name="Path 15782" d="M27.813,38.373c3.374,6.361,13.628,4.072,15.161-2.577,1.446-4.9-3.145-10.57-8.311-9.272-1.658.429-4.241,1.858-3.724,3.85a5.564,5.564,0,0,0-3.127,8Zm3.6-6.207a.911.911,0,0,0,.272-1.365c3.847-2.414,8.82-1.825,8.955,3.619.012,4.9-6.89,7.844-10.274,4.172a4.029,4.029,0,0,1,1.046-6.426Z" fill="#757782"/>
      <path id="Path_15783" data-name="Path 15783" d="M14.906,24.425C8.986,27.8,12.772,36.942,19.16,36.517,26.1,36.6,29.385,27.7,24.612,22.9c-6.293-7.55-13.05,2.356-6.269.247,7.62-1.588,8.673,10.376,1.571,11.549-5.267.8-8.144-6-4.475-9.58a.442.442,0,0,0-.534-.691Z" fill="#757782"/>
      <path id="Path_15784" data-name="Path 15784" d="M7.722,42.413c-1,1.112-2.529,8.734.494,6.815.519-3.877,1.7-7.993,5.352-10.111a.881.881,0,0,0-.889-1.52,10.68,10.68,0,0,0-4.958,4.816Z" fill="#757782"/>
      <path id="Path_15785" data-name="Path 15785" d="M25.524,42.189c.483-4.968-8.311-6.28-5.744-4.037a4.489,4.489,0,0,1,3.679,2.735c.192,1.012,1.152,3.752,1.963,1.511l-.018.06a1.442,1.442,0,0,0,.121-.269Z" fill="#757782"/>
      <path id="Path_15786" data-name="Path 15786" d="M23.905,42.4l-.006-.017C23.888,42.369,23.885,42.368,23.905,42.4Z" fill="#757782"/>
      <path id="Path_15787" data-name="Path 15787" d="M44.548,30.78c4.067,12.24,21.957,2.178,11.761-6.356a.442.442,0,0,0-.534.692c3.385,3.367,1.244,9.672-3.72,9.625-8.581-.642-6.8-14.665,2.251-11.178a1.074,1.074,0,0,0,1.305-1.306c-.507-1.74-2.675-2.433-4.3-2.187A8.978,8.978,0,0,0,44.548,30.78Z" fill="#757782"/>
      <path id="Path_15788" data-name="Path 15788" d="M57.646,39.118C61.308,41.243,62.47,45.353,63,49.228c3.025,1.918,1.489-5.7.494-6.815A10.679,10.679,0,0,0,58.535,37.6a.881.881,0,0,0-.888,1.52Z" fill="#757782"/>
      <path id="Path_15789" data-name="Path 15789" d="M47.443,42.075a4.514,4.514,0,0,1,3.991-3.923.518.518,0,0,0,0-1.035,5.7,5.7,0,0,0-4.162,1.49c-.916.872-1.962,2.772-1.48,3.791.186.927,1.059,1.205,1.375.18l-.041.05A1.132,1.132,0,0,0,47.443,42.075Z" fill="#757782"/>
      <path id="Path_15790" data-name="Path 15790" d="M13.029,14.68c-1.745-1.055-3.417,1.727-1.585,2.712a1.571,1.571,0,0,0,1.585-2.712Z" fill="#757782"/>
      <path id="Path_15791" data-name="Path 15791" d="M16.574,16.53a1.479,1.479,0,0,0,1.648-2.443C16.635,12.8,14.805,15.509,16.574,16.53Z" fill="#757782"/>
      <path id="Path_15792" data-name="Path 15792" d="M20.5,16.433c2.07,1.139,3.07-2.572.714-2.637a1.424,1.424,0,0,0-.714,2.637Z" fill="#757782"/>
      <path id="Path_15793" data-name="Path 15793" d="M30.633,23.106a1.5,1.5,0,1,0-.5-2.033,1.5,1.5,0,0,0,.5,2.033Z" fill="#757782"/>
      <path id="Path_15794" data-name="Path 15794" d="M33.946,22.469a1.295,1.295,0,1,0-.433-1.753A1.295,1.295,0,0,0,33.946,22.469Z" fill="#757782"/>
      <path id="Path_15795" data-name="Path 15795" d="M37.066,22.435a1.468,1.468,0,1,0-.491-1.986A1.468,1.468,0,0,0,37.066,22.435Z" fill="#757782"/>
      <path id="Path_15796" data-name="Path 15796" d="M47.948,17.2l.139-.18A1.063,1.063,0,0,0,47.948,17.2Z" fill="#757782"/>
      <path id="Path_15797" data-name="Path 15797" d="M48.1,17.008l-.008.011Z" fill="#757782"/>
      <path id="Path_15798" data-name="Path 15798" d="M47.744,17.392a1.437,1.437,0,0,0-1.464-2.454c-1.9.813-.213,3.735,1.428,2.483l-.112.086c.119-.1.275-.174.352-.308A.76.76,0,0,1,47.744,17.392Z" fill="#757782"/>
      <path id="Path_15799" data-name="Path 15799" d="M50.072,17.317c2.171,1.194,3.22-2.7.749-2.765a1.493,1.493,0,0,0-.749,2.765Z" fill="#757782"/>
      <path id="Path_15800" data-name="Path 15800" d="M55.312,14.6A1.433,1.433,0,1,0,56.7,16.036,1.433,1.433,0,0,0,55.312,14.6Z" fill="#757782"/>
    </g>
  </g>
</svg>
