<svg xmlns="http://www.w3.org/2000/svg" xmlns:xlink="http://www.w3.org/1999/xlink" width="216" height="218.453" viewBox="0 0 216 218.453">
  <defs>
    <filter id="Path_36045" x="0" y="0" width="216" height="218.453" filterUnits="userSpaceOnUse">
      <feOffset dy="3" input="SourceAlpha"/>
      <feGaussianBlur stdDeviation="3" result="blur"/>
      <feFlood flood-opacity="0.161"/>
      <feComposite operator="in" in2="blur"/>
      <feComposite in="SourceGraphic"/>
    </filter>
  </defs>
  <g id="Group_17674" data-name="Group 17674" transform="translate(-2014 276.453)">
    <g id="Group_17673" data-name="Group 17673" transform="translate(1802 -382)">
      <g transform="matrix(1, 0, 0, 1, 212, 105.55)" filter="url(#Path_36045)">
        <g id="Path_36045-2" data-name="Path 36045" transform="translate(18 17.45)" fill="#fff">
          <path d="M 90 184.5000152587891 C 83.59123992919922 184.5000152587891 77.18515777587891 183.8540954589844 70.95970916748047 182.5801696777344 C 64.89021301269531 181.3381652832031 58.91999816894531 179.4849090576172 53.21494674682617 177.0718841552734 C 47.61447525024414 174.7030944824219 42.21315765380859 171.7713775634766 37.1609992980957 168.3582305908203 C 32.15802764892578 164.978271484375 27.45360565185547 161.0968017578125 23.17839431762695 156.8215942382812 C 18.9032096862793 152.54638671875 15.02173709869385 147.8419647216797 11.64178943634033 142.8389892578125 C 8.228631973266602 137.7868499755859 5.296921253204346 132.3855133056641 2.928131580352783 126.785041809082 C 0.5151052474975586 121.0799865722656 -1.338157892227173 115.1098022460938 -2.580157995223999 109.0402755737305 C -3.854079008102417 102.814826965332 -4.5 96.40875244140625 -4.5 89.99998474121094 L -4.5 -2.452853918075562 L -4.5 -6.952853679656982 L 0 -6.952853679656982 L 180 -6.952853679656982 L 184.5 -6.952853679656982 L 184.5 -2.452853918075562 L 184.5 89.99998474121094 C 184.5 96.40875244140625 183.8540802001953 102.814826965332 182.5801544189453 109.0402755737305 C 181.3381652832031 115.1098022460938 179.4848937988281 121.0799865722656 177.0718688964844 126.785041809082 C 174.7030792236328 132.3855133056641 171.7713623046875 137.7868499755859 168.3582153320312 142.8389892578125 C 164.9782562255859 147.8419647216797 161.0967864990234 152.54638671875 156.8216094970703 156.8215942382812 C 152.5464019775391 161.0968017578125 147.8419799804688 164.978271484375 142.8390045166016 168.3582305908203 C 137.7868347167969 171.7713775634766 132.3855285644531 174.7030944824219 126.7850494384766 177.0718841552734 C 121.0800018310547 179.4849090576172 115.1097869873047 181.3381652832031 109.0402908325195 182.5801696777344 C 102.8148422241211 183.8540954589844 96.40876007080078 184.5000152587891 90 184.5000152587891 Z" stroke="none"/>
          <path d="M 0 -2.452865600585938 L 0 90.00000762939453 C 0 139.7056274414062 40.29437255859375 180 90 180 C 139.7056274414062 180 180 139.7056274414062 180 90.00000762939453 L 180 -2.452865600585938 L 0 -2.452865600585938 M -9 -11.45286560058594 L 189 -11.45286560058594 L 189 90.00000762939453 C 189 144.5887908935547 144.5887756347656 189 90 189 C 35.41122436523438 189 -9 144.5887908935547 -9 90.00000762939453 L -9 -11.45286560058594 Z" stroke="none" fill="#fff"/>
        </g>
      </g>
      <path id="Path_36044" data-name="Path 36044" d="M0-11H180V90A90,90,0,0,1,0,90Z" transform="translate(230 123)" fill="#6ca643"/>
    </g>
    <g id="Artboard_2" data-name="Artboard 2" transform="translate(2031.565 -260.049)">
      <g id="Group_4" data-name="Group 4" transform="translate(55.605 30.01)">
        <path id="Path_27" data-name="Path 27" d="M132.374,95.836c-4.647-2.013-7.7-1.038-7.7-1.038,1.444,1.9-2.7,6.381-2.7,6.381s.706,1.191-.148,3.81a5.375,5.375,0,0,1,1.349,2.9c0,.184-.016.369.074.169l6.813.042c.574-1.259.811-2.4-.68-2.577a5.275,5.275,0,0,1-2.35-.864c-.49-1.1,1.486-5.759,1.486-5.759,2.972-1.6,3.715-2.218,3.857-3.061Z" transform="translate(-97.127 -60.549)" fill="#fff"/>
        <path id="Path_28" data-name="Path 28" d="M127.14,74.081a5.169,5.169,0,0,0,2.35.864c1.491.174,1.254,1.317.68,2.577,0,0-4.236-.032-6.692-.021-.095-.8-.711-2.7-1.454-3.177,1.2-3.146.327-4.057.327-4.057,1.328-1.407,2.071-5.153,2.071-5.153-5.78,2.44-13.984-1.818-13.984-1.818a15.405,15.405,0,0,0-9.479-.58A7.43,7.43,0,0,0,98.45,64c-.959.564-6.012,4.173-10.312,4.389,0,0-4.5,4.927-2.961,5.77l.221.074a5.07,5.07,0,0,0,2.224.738c1.491.174,1.254,1.312.68,2.577l-6.813-.042h-.622s-.3-2.534-1.064-3.1c0,0,3.926-6.75,3.462-8.014,0,0,10.011-1.976,11.914-11.75a30.709,30.709,0,0,1-2.735,3.267l-.29.316c-.211.269-6.06,6.276-11.566,6.413-2.556.063-4.273-.548-5.1-1.823s-.7-3.067.379-5.348l.037-.079.053-.069a14.429,14.429,0,0,0,1.312-2,14.765,14.765,0,0,1,.553-2.16,7.4,7.4,0,0,1,4.215-3.973,7.244,7.244,0,0,1,2.366-.205,2.437,2.437,0,0,0-1.328,2.092c-.216,1.681-.616,5.285-3.135,5.554a4.075,4.075,0,0,0-2.039.564,2.26,2.26,0,0,0-.764,1.064l.095-.148c-.58,1.222-1.128,2.882-.479,3.883s2.424,1.043,3.8,1.012c4.795-.116,8.926-5.87,8.973-5.933l.722-.922c.49-.611.906-1.164,1.238-1.591.659-.848,1.828-2.461,1.828-2.461a6.563,6.563,0,0,1,5.264-2.851c1.612-.09,1.813.469,4.521.838,2.471.332,2.719.047,4.668.216a3.732,3.732,0,0,0,2.677,1.96v.021a3.621,3.621,0,0,0,3.277,3.525,3.054,3.054,0,0,0,2.566,2.334,2.5,2.5,0,0,0-.026.279,3.279,3.279,0,0,0,6.46.79,6.649,6.649,0,0,1-.917.9,1.425,1.425,0,0,0-.237.158,2.836,2.836,0,0,1-1.038.19,2.232,2.232,0,0,1-2.3-2.145,1.884,1.884,0,0,1,.121-.643l.279-.817-.859.074c-.042,0-.074.011-.105.011s-.063.005-.079.005a1.913,1.913,0,0,1-1.96-1.792l-.011-.559-.559.011h-.063a2.514,2.514,0,0,1-2.577-2.424,2.077,2.077,0,0,1,.047-.4l.111-.627-.638-.032a2.913,2.913,0,0,1-2.4-2.74h-.121v-.126c-9.927.69-14.232-2.561-15.6-7.3-.906-3.156-.49-6.36,1.9-7.714-.89,5.959,4.41,6.481,4.41,6.481-3.541-2.034-2.787-9.079,1.033-9.716-2.308,2.993.311,4.858.311,4.858.126-4.69,5.127-4.821,5.127-4.821s-3.609,1.507-1.96,4.668c2.5,4.795,14.021,1.612,14.021,1.612,10.006-2.376,10.923,3.947,10.923,3.947.253,1.465-.385,2.608-.8,4.11s.548,4.078,2.635,5.248c.169.095.337.184.506.274a5.774,5.774,0,0,0,1.9.3c-.042-.068-4.358-3.051-2.787-6.618.627-1.428,1.217-3.072.991-3.983a2.088,2.088,0,0,0-.59-1.207,27.365,27.365,0,0,1,6.85-2.909s4.379-4.69,5.712-5.111a6.426,6.426,0,0,1-.811,3.657,4.19,4.19,0,0,1,2.318.279c.606.232.938,1.175.938,1.175s3.193.537,3.1,2.835-2.25,3.446-3.135,3.773c0,0,1.734-2.861-3.7-1.033s-5.838,7.925-5.838,7.925,6.2,5.322-.648,12.751-8.083,7.914-8.083,7.914a18.343,18.343,0,0,0-1.423,3.435.934.934,0,0,0,.458,1.006Zm17.2-36.6a1.13,1.13,0,1,0-1.133-1.133A1.13,1.13,0,0,0,144.339,37.476Z" transform="translate(-74.949 -30.01)" fill="#fff"/>
      </g>
      <g id="Group_5" data-name="Group 5" transform="translate(34.624 87.233)">
        <path id="Path_29" data-name="Path 29" d="M36.14,148.98v-.058a10,10,0,0,1,10-10.312,10.511,10.511,0,0,1,7.435,2.65l-1.454,1.707a8.479,8.479,0,0,0-6.065-2.276c-4.416,0-7.577,3.731-7.577,8.172v.058c0,4.758,3.046,8.288,7.888,8.288a9.427,9.427,0,0,0,5.754-1.992v-4.953H46.051v-2.023h8.23v7.946a12.089,12.089,0,0,1-8,3.046C40.013,159.233,36.14,154.676,36.14,148.98Z" transform="translate(-35.608 -138.61)" fill="#fff"/>
        <path id="Path_30" data-name="Path 30" d="M80.19,139.27h8.573a7.883,7.883,0,0,1,5.67,1.992,5.508,5.508,0,0,1,1.539,3.931v.058c0,3.3-2.276,5.238-5.411,5.812l6.123,8.146H93.921l-5.78-7.746h-5.7v7.746H80.2V139.275Zm8.373,10.164c2.988,0,5.127-1.539,5.127-4.1v-.058c0-2.45-1.881-3.931-5.1-3.931H82.445v8.088h6.123Z" transform="translate(-56.447 -138.922)" fill="#fff"/>
        <path id="Path_31" data-name="Path 31" d="M119.64,139.27h2.25V159.2h-2.25Z" transform="translate(-75.11 -138.922)" fill="#fff"/>
        <path id="Path_32" data-name="Path 32" d="M134.99,139.27h14.327v2.081H137.24v7.119h10.791v2.05H137.24V159.2h-2.25V139.27Z" transform="translate(-82.372 -138.922)" fill="#fff"/>
        <path id="Path_33" data-name="Path 33" d="M170.45,139.27h14.327v2.081H172.7v7.119h10.791v2.05H172.7V159.2h-2.25V139.27Z" transform="translate(-99.148 -138.922)" fill="#fff"/>
        <path id="Path_34" data-name="Path 34" d="M206.28,139.27h2.25V159.2h-2.25Z" transform="translate(-116.098 -138.922)" fill="#fff"/>
        <path id="Path_35" data-name="Path 35" d="M221.625,139.27h2.108l12.556,15.976V139.27h2.192V159.2h-1.8l-12.873-16.345V159.2H221.62V139.27Z" transform="translate(-123.355 -138.922)" fill="#fff"/>
        <path id="Path_36" data-name="Path 36" d="M35.135,203.091l1.3-1.544a8.853,8.853,0,0,0,6.381,2.629c2.582,0,4.147-1.328,4.147-3.162v-.053c0-1.728-.933-2.714-4.837-3.536-4.279-.933-6.244-2.313-6.244-5.369V192c0-2.924,2.577-5.074,6.112-5.074a9.691,9.691,0,0,1,6.539,2.287l-1.222,1.623a8.183,8.183,0,0,0-5.369-2.018c-2.419,0-3.962,1.328-3.962,3v.053c0,1.755.959,2.74,5.048,3.615,4.147.906,6.06,2.419,6.06,5.264v.053c0,3.188-2.656,5.264-6.355,5.264a10.9,10.9,0,0,1-7.6-2.977Z" transform="translate(-35.13 -161.469)" fill="#fff"/>
        <path id="Path_37" data-name="Path 37" d="M68.18,196.5v-.053a9.374,9.374,0,0,1,9.411-9.621,9.677,9.677,0,0,1,7.256,2.951l-1.433,1.544a8.083,8.083,0,0,0-5.849-2.55,7.3,7.3,0,0,0-7.2,7.63v.053c0,4.3,3.109,7.682,7.2,7.682a8.093,8.093,0,0,0,6.007-2.682l1.381,1.354a9.694,9.694,0,0,1-7.44,3.272,9.282,9.282,0,0,1-9.332-9.569Z" transform="translate(-50.765 -161.422)" fill="#fff"/>
        <path id="Path_38" data-name="Path 38" d="M106.97,187.43h2.1V195.7h10.739V187.43h2.1v18.605h-2.1v-8.373H109.072v8.373h-2.1Z" transform="translate(-69.116 -161.706)" fill="#fff"/>
        <path id="Path_39" data-name="Path 39" d="M143.74,196.5v-.053a9.49,9.49,0,1,1,18.98-.053v.053a9.49,9.49,0,1,1-18.98.053Zm16.8,0v-.053a7.4,7.4,0,0,0-7.335-7.682,7.31,7.31,0,0,0-7.282,7.63v.053a7.4,7.4,0,0,0,7.335,7.682A7.31,7.31,0,0,0,160.538,196.5Z" transform="translate(-86.512 -161.422)" fill="#fff"/>
        <path id="Path_40" data-name="Path 40" d="M186.62,196.5v-.053A9.49,9.49,0,1,1,205.6,196.4v.053a9.49,9.49,0,1,1-18.979.053Zm16.8,0v-.053a7.4,7.4,0,0,0-7.335-7.682,7.31,7.31,0,0,0-7.282,7.63v.053a7.4,7.4,0,0,0,7.335,7.682A7.31,7.31,0,0,0,203.418,196.5Z" transform="translate(-106.797 -161.422)" fill="#fff"/>
        <path id="Path_41" data-name="Path 41" d="M231.06,187.43h2.1V204.1h10.47v1.939H231.06Z" transform="translate(-127.821 -161.706)" fill="#fff"/>
      </g>
    </g>
  </g>
</svg>
