<svg xmlns="http://www.w3.org/2000/svg" xmlns:xlink="http://www.w3.org/1999/xlink" width="1440" height="90" viewBox="0 0 1440 90">
  <defs>
    <clipPath id="clip-path">
      <rect id="Rectangle_4422" data-name="Rectangle 4422" width="1440" height="90" transform="translate(0 1559)" fill="#fff"/>
    </clipPath>
    <clipPath id="clip-path-2">
      <path id="Path_35445" data-name="Path 35445" d="M1919.992,0V4.682a2.671,2.671,0,0,0,1.257,2.238,10.349,10.349,0,1,1-11.114-.018,2.63,2.63,0,0,0,1.233-2.219V0h-29.2V4.682a2.669,2.669,0,0,0,1.259,2.238,10.35,10.35,0,1,1-11.114-.018,2.63,2.63,0,0,0,1.232-2.219V0h-29.2V4.682A2.667,2.667,0,0,0,1845.6,6.92a10.35,10.35,0,1,1-11.114-.018,2.628,2.628,0,0,0,1.231-2.219V0h-29.2V4.682a2.671,2.671,0,0,0,1.257,2.238,10.349,10.349,0,1,1-11.113-.018,2.631,2.631,0,0,0,1.234-2.219V0h-29.2V4.682a2.668,2.668,0,0,0,1.257,2.238,10.35,10.35,0,1,1-11.112-.018,2.629,2.629,0,0,0,1.231-2.219V0h-29.2V4.682a2.672,2.672,0,0,0,1.256,2.238,10.349,10.349,0,1,1-11.112-.018,2.628,2.628,0,0,0,1.231-2.219V0h-29.2V4.682A2.669,2.669,0,0,0,1694.3,6.92a10.349,10.349,0,1,1-11.115-.018,2.63,2.63,0,0,0,1.233-2.219V0h-30.339V4.682a2.671,2.671,0,0,0,1.257,2.238,10.331,10.331,0,0,1-5,19.029c-.22-.012-.438-.015-.66-.04A10.342,10.342,0,0,1,1645.366,6.9a2.628,2.628,0,0,0,1.231-2.219V0h-30.339V4.682a2.667,2.667,0,0,0,1.257,2.238A10.35,10.35,0,1,1,1606.4,6.9a2.63,2.63,0,0,0,1.233-2.219V0h-29.2V4.682a2.667,2.667,0,0,0,1.257,2.238,10.351,10.351,0,1,1-11.114-.018,2.629,2.629,0,0,0,1.231-2.219V0h-29.2V4.682a2.671,2.671,0,0,0,1.257,2.238,10.349,10.349,0,1,1-11.114-.018,2.631,2.631,0,0,0,1.234-2.219V0h-29.2V4.682a2.667,2.667,0,0,0,1.257,2.238,10.35,10.35,0,1,1-11.114-.018,2.627,2.627,0,0,0,1.233-2.219V0h-29.2V4.682a2.673,2.673,0,0,0,1.256,2.238A10.349,10.349,0,1,1,1455.1,6.9a2.628,2.628,0,0,0,1.231-2.219V0h-29.2V4.682a2.669,2.669,0,0,0,1.259,2.238,10.349,10.349,0,1,1-11.115-.018,2.63,2.63,0,0,0,1.232-2.219V0h-29.384V4.682a2.669,2.669,0,0,0,1.256,2.238,10.264,10.264,0,1,1-10.926-.018,2.628,2.628,0,0,0,1.231-2.219V0H1351.3V4.682a2.671,2.671,0,0,0,1.257,2.238,10.336,10.336,0,0,1-5.44,19.051c-.332-.007-.669-.023-1.007-.061A10.342,10.342,0,0,1,1341.792,6.9a2.628,2.628,0,0,0,1.231-2.219V0h-29.548V4.682a2.669,2.669,0,0,0,1.259,2.238,10.336,10.336,0,0,1-5.439,19.051c-.335-.007-.67-.023-1.01-.061A10.343,10.343,0,0,1,1303.969,6.9a2.633,2.633,0,0,0,1.232-2.219V0h-29.548V4.682a2.669,2.669,0,0,0,1.256,2.238,10.336,10.336,0,0,1-5.439,19.051c-.334-.007-.669-.023-1.008-.061A10.342,10.342,0,0,1,1266.143,6.9a2.63,2.63,0,0,0,1.232-2.219V0h-29.548V4.682a2.671,2.671,0,0,0,1.257,2.238,10.336,10.336,0,0,1-5.439,19.051c-.334-.007-.671-.023-1.009-.061A10.342,10.342,0,0,1,1228.319,6.9a2.628,2.628,0,0,0,1.231-2.219V0H1200V4.682a2.669,2.669,0,0,0,1.259,2.238,10.336,10.336,0,0,1-5.439,19.051c-.334-.007-.669-.023-1.01-.061A10.343,10.343,0,0,1,1190.495,6.9a2.633,2.633,0,0,0,1.232-2.219V0h-29.548V4.682a2.67,2.67,0,0,0,1.256,2.238A10.336,10.336,0,0,1,1158,25.971c-.334-.007-.669-.023-1.009-.061A10.342,10.342,0,0,1,1152.669,6.9a2.626,2.626,0,0,0,1.232-2.219V0h-29.548V4.682a2.669,2.669,0,0,0,1.259,2.238,10.337,10.337,0,0,1-5.441,19.051c-.332-.007-.669-.023-1.008-.061A10.342,10.342,0,0,1,1114.845,6.9a2.628,2.628,0,0,0,1.231-2.219V0h-30.337V4.682A2.667,2.667,0,0,0,1087,6.92a10.331,10.331,0,0,1-5,19.029c-.218-.012-.436-.015-.659-.04A10.343,10.343,0,0,1,1077.021,6.9a2.634,2.634,0,0,0,1.232-2.219V0h-30.34V4.682a2.671,2.671,0,0,0,1.257,2.238,10.332,10.332,0,0,1-5.162,19.038c-.262-.012-.524-.018-.789-.048A10.343,10.343,0,0,1,1038.9,6.9a2.629,2.629,0,0,0,1.231-2.219V0h-30.043V4.682a2.667,2.667,0,0,0,1.257,2.238,10.332,10.332,0,0,1-5.162,19.038c-.262-.012-.524-.018-.789-.048A10.342,10.342,0,0,1,1001.078,6.9a2.633,2.633,0,0,0,1.232-2.219V0H972.265V4.682a2.671,2.671,0,0,0,1.257,2.238,10.332,10.332,0,0,1-5.162,19.038c-.262-.012-.524-.018-.79-.048A10.342,10.342,0,0,1,963.253,6.9a2.629,2.629,0,0,0,1.231-2.219V0H934.44V4.682A2.669,2.669,0,0,0,935.7,6.92a10.332,10.332,0,0,1-5.164,19.038c-.262-.012-.524-.018-.789-.048A10.343,10.343,0,0,1,925.428,6.9a2.63,2.63,0,0,0,1.232-2.219V0H896.615V4.682a2.668,2.668,0,0,0,1.257,2.238,10.332,10.332,0,0,1-5.162,19.038c-.262-.012-.524-.018-.789-.048A10.342,10.342,0,0,1,887.6,6.9a2.63,2.63,0,0,0,1.233-2.219V0H858.791V4.682a2.671,2.671,0,0,0,1.257,2.238,10.332,10.332,0,0,1-5.162,19.038c-.262-.01-.524-.018-.79-.048A10.342,10.342,0,0,1,849.78,6.9a2.628,2.628,0,0,0,1.231-2.219V0H820.781V4.682a2.668,2.668,0,0,0,1.257,2.238,10.331,10.331,0,0,1-5.183,19.036c-.256-.012-.511-.018-.77-.047A10.343,10.343,0,0,1,811.768,6.9,2.63,2.63,0,0,0,813,4.684V0H782.956V4.682a2.671,2.671,0,0,0,1.257,2.238,10.332,10.332,0,0,1-5.162,19.038c-.262-.012-.522-.018-.789-.048A10.342,10.342,0,0,1,773.946,6.9a2.628,2.628,0,0,0,1.231-2.219V0H745.132V4.682a2.671,2.671,0,0,0,1.257,2.238,10.332,10.332,0,0,1-5.162,19.038c-.262-.012-.524-.018-.79-.048A10.343,10.343,0,0,1,736.12,6.9a2.63,2.63,0,0,0,1.232-2.219V0H707.308V4.682a2.667,2.667,0,0,0,1.257,2.238A10.332,10.332,0,0,1,703.4,25.958c-.262-.012-.524-.018-.789-.048A10.343,10.343,0,0,1,698.295,6.9a2.63,2.63,0,0,0,1.232-2.219V0H669.484V4.682a2.668,2.668,0,0,0,1.257,2.238,10.332,10.332,0,0,1-5.164,19.038c-.262-.012-.523-.018-.789-.048A10.342,10.342,0,0,1,660.472,6.9,2.632,2.632,0,0,0,661.7,4.684V0H631.658V4.682a2.671,2.671,0,0,0,1.257,2.238,10.332,10.332,0,0,1-5.162,19.038c-.262-.012-.524-.018-.79-.048A10.343,10.343,0,0,1,622.647,6.9a2.63,2.63,0,0,0,1.232-2.219V0H593.833V4.682a2.669,2.669,0,0,0,1.259,2.238,10.332,10.332,0,0,1-5.162,19.038c-.262-.012-.524-.018-.789-.048A10.342,10.342,0,0,1,584.823,6.9a2.63,2.63,0,0,0,1.232-2.219V0H556.01V4.682a2.667,2.667,0,0,0,1.257,2.238,10.341,10.341,0,0,1-5.6,19.058,10.726,10.726,0,0,1-1.139-.069A10.342,10.342,0,0,1,546.208,6.9a2.632,2.632,0,0,0,1.231-2.219V0h-29.2V4.682A2.667,2.667,0,0,0,519.5,6.92,10.35,10.35,0,1,1,508.382,6.9a2.633,2.633,0,0,0,1.232-2.219V0h-29.2V4.682a2.669,2.669,0,0,0,1.259,2.238A10.35,10.35,0,1,1,470.558,6.9a2.629,2.629,0,0,0,1.231-2.219V0h-29.2V4.682a2.671,2.671,0,0,0,1.257,2.238A10.349,10.349,0,1,1,432.733,6.9a2.63,2.63,0,0,0,1.232-2.219V0h-29.2V4.682a2.667,2.667,0,0,0,1.257,2.238A10.35,10.35,0,1,1,394.909,6.9a2.63,2.63,0,0,0,1.232-2.219V0h-29.2V4.682A2.674,2.674,0,0,0,368.2,6.92,10.35,10.35,0,1,1,357.085,6.9a2.629,2.629,0,0,0,1.231-2.219V0h-29.2V4.682a2.671,2.671,0,0,0,1.257,2.238A10.348,10.348,0,1,1,319.259,6.9a2.63,2.63,0,0,0,1.232-2.219V0H291.106V4.682a2.667,2.667,0,0,0,1.257,2.238A10.264,10.264,0,1,1,281.435,6.9a2.63,2.63,0,0,0,1.232-2.219V0H253.282V4.682a2.671,2.671,0,0,0,1.257,2.238A10.35,10.35,0,1,1,243.425,6.9a2.628,2.628,0,0,0,1.231-2.219V0h-29.2V4.682a2.669,2.669,0,0,0,1.259,2.238A10.35,10.35,0,1,1,205.6,6.9a2.633,2.633,0,0,0,1.232-2.219V0h-29.2V4.682a2.667,2.667,0,0,0,1.257,2.238A10.35,10.35,0,1,1,167.777,6.9a2.628,2.628,0,0,0,1.231-2.219V0h-29.2V4.682a2.671,2.671,0,0,0,1.257,2.238A10.35,10.35,0,1,1,129.952,6.9a2.628,2.628,0,0,0,1.231-2.219V0h-29.2V4.682a2.669,2.669,0,0,0,1.259,2.238A10.35,10.35,0,1,1,92.128,6.9,2.63,2.63,0,0,0,93.36,4.684V0H64.16V4.682A2.669,2.669,0,0,0,65.416,6.92,10.35,10.35,0,1,1,54.3,6.9a2.628,2.628,0,0,0,1.231-2.219V0h-29.2V4.682A2.671,2.671,0,0,0,27.592,6.92,10.348,10.348,0,1,1,16.478,6.9,2.63,2.63,0,0,0,17.71,4.684V0H0V232.683a15.94,15.94,0,0,0,.165,2.256c.174,1.232-.3,2.5.323,3.639.47.868.448,1.714.858,2.559.344.711.076.65.826.88a5.145,5.145,0,0,0,1.244-.022,14.887,14.887,0,0,1,1.963-.012,7.238,7.238,0,0,1,1.071.391c1.535.342,2.739-.274,4.142-.869a27.969,27.969,0,0,1,6.982-1.85c2.3-.319,4.549.227,6.821.506a2.555,2.555,0,0,0,1.585.288,5.718,5.718,0,0,1,1.721-.457,5,5,0,0,1,1.449.4,29.807,29.807,0,0,1,3.006,1.674c1.287.6,2.635-.06,3.814-.621,2.635-1.254,4.371-3.409,7.473-2.519a40.158,40.158,0,0,0,4.354.729c2.279.4,3.53,1.452,5.379,2.718a11.462,11.462,0,0,0,3.046,1.587,5.6,5.6,0,0,1,1.712.584c1.12.727,1.527,1.058,2.9.767a35.671,35.671,0,0,0,5.5-1.862,7.01,7.01,0,0,1,3.223-.5,10.351,10.351,0,0,0,2.383.223c1.749-.394,2.768-2.317,4.786-2.077,1.47.174,3.112,1.281,4.392,1.893a90.571,90.571,0,0,0,9.025,3.9c1.475.514,3.205.413,4.511,1.426.468.363.779,1.225,1.442,1.317.547.078,1.371-.621,1.818-.814,2.024-.875,2.364-.427,4.012.869a10.741,10.741,0,0,0,6.767,2.081,15.738,15.738,0,0,1,3.406.367,5.148,5.148,0,0,0,1.013.048,5.318,5.318,0,0,1,.938.035,4.959,4.959,0,0,1,2.538,1.49c1.222,1.044,2.84,1.333,4.072,2.43,1.085.97,1.311,3.633,3.14,2.806.744-.337,1.547-2.215,2.068-2.929a15.774,15.774,0,0,1,1.963-2.462,10.917,10.917,0,0,0,2.917-3.724c.476-1.038.985-2.011,1.5-3.011a12.066,12.066,0,0,1,.534-1.287c.2-.252.681-.407.912-.692.451-.558.606-1.358,1.042-1.958a5.9,5.9,0,0,1,2.724-2.5,7.581,7.581,0,0,1,2.058-.322,10.494,10.494,0,0,0,2.436-.574c1.139-.452,1.565-1.266,2.49-1.929.959-.686,1.467-.9,2.024-1.986a41.342,41.342,0,0,1,1.954-4.208,12.711,12.711,0,0,1,3.368-3.021,7.527,7.527,0,0,1,5.891-1.1,15.736,15.736,0,0,0,8.814-.867c1.2-.521,2.573-1.3,3.844-.467.868.569,1.2,1.712,1.856,2.472,1.556.039,2.566-2.986,4.27-3.369.891,1.206-.622,3.937,1.695,2.866a9.692,9.692,0,0,1,4.306-.992c1.129-.022,2.055-.493,3.17-.509,1.467-.023,1.8.665,2.782,1.617,1.5,1.453,3.245.078,4.684,1.39.577.525.83,1.61,1.667,1.853s1.01-.369,1.619-.663c1.275-.618,1.556.464,2.775.726,1.374.3,1.872-.092,3.2.584a2.363,2.363,0,0,0,1.568.145,3.25,3.25,0,0,1,1.24-.013c1,.217,1.332,1.235,2.179,1.616a2.624,2.624,0,0,0,1.426.044,2.326,2.326,0,0,1,1.55.111c.5.309.318.738.9.929a4.775,4.775,0,0,0,1-.038c1.72-.06.979.324,2.023,1.369.629.629,1.9.477,2.618,1.074,1.284,1.067,1.695,3.113,2.9,4.368,1.231,1.281,2.589,1.544,4.193,2.08,1.388.461,2.591,1.455,3.987,1.974.947.356,1.8.206,2.711.467a9.267,9.267,0,0,1,1.571.868c.546.328.763.814,1.26,1.181a1.606,1.606,0,0,0,1.862,0,2.137,2.137,0,0,1,1.307-.285c1.266.24,1.3,3.061,1.551,4.032.571,2.261,1.736,2.27,2.793.464,2.446-4.179,8.018-3.006,12.22-3.428,1.712-.171,1.273-2.241,3.154-1.929,1.7.281,3.072,2.261,4.64,2.907,1.193.492,2.191,1.418,3.381,1.841a13.877,13.877,0,0,0,4.839.584,18.515,18.515,0,0,1,4.712.537,50.711,50.711,0,0,1,7.667,2.894c1.9.8,3.786,1.944,5.625,1.011.511.672.426,1.835,1.2,2.291a1.176,1.176,0,0,0,.818.088,1.762,1.762,0,0,1,.547-.016c.382.067.875.5,1.3.508h.015a.527.527,0,0,0,.171-.029c.464-.162.735-1.487.937-1.809.364-.584.722-1.066,1.064-1.644a27.124,27.124,0,0,1,2.383-2.961,26.034,26.034,0,0,1,1.985-2.816c1.071-1.038,2.333-1.358,3.115-2.664.847-1.414,1.786-2.734,2.689-4.12.021-.032.04-.063.059-.1q.22-.384.426-.774c.641-1.2,1.2-2.462,1.726-3.715a4.744,4.744,0,0,1,2.725,0,40.122,40.122,0,0,0,4.356.729c2.277.4,3.53,1.452,5.378,2.718a11.476,11.476,0,0,0,3.044,1.587,5.578,5.578,0,0,1,1.714.584c1.118.727,1.527,1.058,2.905.767a35.69,35.69,0,0,0,5.5-1.862,7.013,7.013,0,0,1,3.224-.5,10.356,10.356,0,0,0,2.384.223c1.749-.394,2.766-2.317,4.783-2.077,1.471.174,3.113,1.281,4.394,1.893a90.278,90.278,0,0,0,9.025,3.9c1.475.514,3.205.413,4.511,1.426.468.363.779,1.225,1.442,1.317.547.078,1.373-.621,1.818-.814,2.023-.875,2.362-.427,4.01.869a10.752,10.752,0,0,0,6.769,2.081,15.711,15.711,0,0,1,3.4.367,5.169,5.169,0,0,0,1.014.048,5.312,5.312,0,0,1,.938.035,4.955,4.955,0,0,1,2.537,1.49c1.224,1.044,2.842,1.333,4.072,2.43,1.087.97,1.314,3.633,3.141,2.806.742-.337,1.546-2.215,2.068-2.929a15.688,15.688,0,0,1,1.963-2.462,10.9,10.9,0,0,0,2.917-3.724c.476-1.038.987-2.011,1.5-3.011a12.369,12.369,0,0,1,.531-1.287c.2-.252.681-.407.912-.692.452-.558.606-1.358,1.044-1.958a5.907,5.907,0,0,1,2.722-2.5,7.619,7.619,0,0,1,2.061-.322,10.512,10.512,0,0,0,2.436-.574c1.136-.452,1.563-1.266,2.49-1.929.957-.686,1.465-.9,2.023-1.986a41.342,41.342,0,0,1,1.954-4.208,12.727,12.727,0,0,1,3.366-3.021,7.531,7.531,0,0,1,5.893-1.1,15.728,15.728,0,0,0,8.813-.867c1.2-.521,2.574-1.3,3.845-.467.867.569,1.2,1.712,1.855,2.472,1.557.039,2.566-2.986,4.271-3.369.891,1.206-.622,3.937,1.693,2.866a9.7,9.7,0,0,1,4.306-.992c1.129-.022,2.056-.493,3.172-.509,1.465-.023,1.8.665,2.784,1.617,1.5,1.453,3.242.078,4.681,1.39.578.525.831,1.61,1.667,1.853s1.011-.369,1.62-.663c1.275-.618,1.556.464,2.774.726,1.377.3,1.874-.092,3.2.584a2.369,2.369,0,0,0,1.569.145,3.25,3.25,0,0,1,1.24-.013c1,.217,1.33,1.235,2.178,1.616a2.63,2.63,0,0,0,1.427.044,2.326,2.326,0,0,1,1.55.111c.5.309.318.738.9.929a4.775,4.775,0,0,0,1-.038c1.72-.06.978.324,2.024,1.369.628.629,1.9.477,2.617,1.074,1.282,1.067,1.694,3.113,2.9,4.368,1.228,1.281,2.588,1.544,4.192,2.08,1.386.461,2.591,1.455,3.987,1.974.947.356,1.8.206,2.709.467a9.236,9.236,0,0,1,1.573.868c.543.328.761.814,1.259,1.181a1.609,1.609,0,0,0,1.863,0,2.133,2.133,0,0,1,1.307-.285c1.265.24,1.3,3.061,1.549,4.032.572,2.261,1.737,2.27,2.794.464,2.446-4.179,8.018-3.006,12.219-3.428,1.714-.171,1.275-2.241,3.157-1.929,1.695.281,3.071,2.261,4.64,2.907,1.19.492,2.188,1.418,3.38,1.841a13.877,13.877,0,0,0,4.84.584,18.484,18.484,0,0,1,4.709.537,50.666,50.666,0,0,1,7.668,2.894c1.9.8,3.786,1.944,5.623,1.011.512.672.429,1.835,1.2,2.291a1.176,1.176,0,0,0,.818.088,1.761,1.761,0,0,1,.547-.016c.381.067.875.5,1.3.508h.015a.527.527,0,0,0,.171-.029c.462-.162.735-1.487.937-1.809.364-.584.722-1.066,1.063-1.644a27.29,27.29,0,0,1,2.384-2.961,25.827,25.827,0,0,1,1.985-2.816c1.071-1.038,2.333-1.358,3.115-2.664.847-1.414,1.786-2.734,2.689-4.12.021-.032.04-.063.057-.1q.22-.384.427-.774c.269-.508.518-1.027.764-1.549.007.015.01.032.018.048.345.711.076.65.826.88a5.143,5.143,0,0,0,1.244-.022,14.89,14.89,0,0,1,1.963-.012,7.349,7.349,0,0,1,1.074.391c1.532.342,2.739-.274,4.139-.869.547-.233,1.112-.443,1.688-.637.72.438,1.418.947,2.231,1.5a11.44,11.44,0,0,0,3.046,1.587,5.6,5.6,0,0,1,1.713.584c1.12.727,1.527,1.058,2.9.767a35.656,35.656,0,0,0,5.5-1.862,7.01,7.01,0,0,1,3.224-.5,10.344,10.344,0,0,0,2.383.223c1.749-.394,2.768-2.317,4.786-2.077,1.468.174,3.112,1.281,4.391,1.893a90.566,90.566,0,0,0,9.025,3.9c1.475.514,3.207.413,4.512,1.426.468.363.779,1.225,1.44,1.317.549.078,1.373-.621,1.818-.814,2.026-.875,2.364-.427,4.012.869a10.746,10.746,0,0,0,6.768,2.081,15.725,15.725,0,0,1,3.4.367,5.163,5.163,0,0,0,1.014.048,5.3,5.3,0,0,1,.937.035,4.969,4.969,0,0,1,2.539,1.49c1.221,1.044,2.84,1.333,4.072,2.43,1.085.97,1.311,3.633,3.138,2.806.744-.337,1.547-2.215,2.068-2.929a15.86,15.86,0,0,1,1.963-2.462,10.9,10.9,0,0,0,2.919-3.724c.351-.767.723-1.5,1.1-2.232a4.4,4.4,0,0,1,1.475.716c.468.363.779,1.225,1.442,1.317.547.078,1.372-.621,1.818-.814,2.023-.875,2.364-.427,4.01.869a10.749,10.749,0,0,0,6.769,2.081,15.732,15.732,0,0,1,3.4.367,5.153,5.153,0,0,0,1.013.048,5.313,5.313,0,0,1,.938.035,4.959,4.959,0,0,1,2.538,1.49c1.224,1.044,2.843,1.333,4.072,2.43,1.086.97,1.315,3.633,3.141,2.806.744-.337,1.546-2.215,2.067-2.929a15.705,15.705,0,0,1,1.964-2.462,10.9,10.9,0,0,0,2.916-3.724c.476-1.038.988-2.011,1.5-3.011a12.365,12.365,0,0,1,.533-1.287c.2-.252.681-.407.912-.692.452-.558.606-1.358,1.044-1.958a5.9,5.9,0,0,1,2.722-2.5,7.6,7.6,0,0,1,2.061-.322,10.5,10.5,0,0,0,2.434-.574c1.137-.452,1.565-1.266,2.49-1.929.957-.686,1.465-.9,2.023-1.986a41.654,41.654,0,0,1,1.954-4.208,11.8,11.8,0,0,1,2.858-2.667c1.079.13,2.184-.193,3.153.691.578.525.83,1.61,1.669,1.853s1.008-.369,1.619-.663c1.275-.618,1.556.464,2.772.726,1.377.3,1.873-.092,3.2.584a2.367,2.367,0,0,0,1.569.145,3.242,3.242,0,0,1,1.238-.013c1,.217,1.33,1.235,2.181,1.616a2.624,2.624,0,0,0,1.426.044,2.326,2.326,0,0,1,1.55.111c.5.309.318.738.9.929a4.784,4.784,0,0,0,1-.038c1.718-.06.978.324,2.023,1.369.629.629,1.9.477,2.617,1.074,1.285,1.067,1.7,3.113,2.9,4.368,1.231,1.281,2.589,1.544,4.193,2.08,1.388.461,2.589,1.455,3.986,1.974.947.356,1.8.206,2.711.467a9.28,9.28,0,0,1,1.572.868c.544.328.761.814,1.26,1.181a1.606,1.606,0,0,0,1.862,0,2.135,2.135,0,0,1,1.307-.285c1.266.24,1.3,3.061,1.55,4.032.572,2.261,1.737,2.27,2.793.464,2.447-4.179,8.019-3.006,12.222-3.428,1.712-.171,1.273-2.241,3.154-1.929,1.695.281,3.071,2.261,4.64,2.907,1.191.492,2.19,1.418,3.38,1.841a13.888,13.888,0,0,0,4.84.584,18.477,18.477,0,0,1,4.709.537,50.624,50.624,0,0,1,7.67,2.894c1.9.8,3.787,1.944,5.623,1.011.512.672.427,1.835,1.2,2.291a1.181,1.181,0,0,0,.82.088,1.76,1.76,0,0,1,.547-.016c.381.067.875.5,1.3.508h.015a.527.527,0,0,0,.171-.029c.462-.162.735-1.487.937-1.809.364-.584.722-1.066,1.063-1.644a27.3,27.3,0,0,1,2.383-2.961,26.245,26.245,0,0,1,1.985-2.816,8.029,8.029,0,0,1,1.218-.932,4.663,4.663,0,0,0,.809.454c1.191.492,2.19,1.418,3.381,1.841a13.868,13.868,0,0,0,4.839.584,18.5,18.5,0,0,1,4.71.537,50.672,50.672,0,0,1,7.668,2.894c1.9.8,3.785,1.944,5.623,1.011.511.672.427,1.835,1.2,2.291a1.18,1.18,0,0,0,.82.088,1.759,1.759,0,0,1,.547-.016c.38.067.875.5,1.3.508h.015a.512.512,0,0,0,.17-.029c.464-.162.736-1.487.938-1.809.365-.584.72-1.066,1.063-1.644a27.312,27.312,0,0,1,2.384-2.961,25.8,25.8,0,0,1,1.983-2.816c1.073-1.038,2.334-1.358,3.115-2.664.847-1.414,1.787-2.734,2.69-4.12.021-.032.038-.063.057-.1q.22-.384.427-.774c.195-.366.37-.745.552-1.118,1.024.424,2.049,1.054,2.911,1.465a90.376,90.376,0,0,0,9.024,3.9c1.475.514,3.205.413,4.512,1.426.468.363.779,1.225,1.442,1.317.547.078,1.371-.621,1.818-.814,2.023-.875,2.362-.427,4.01.869a10.745,10.745,0,0,0,6.768,2.081,15.736,15.736,0,0,1,3.4.367,5.148,5.148,0,0,0,1.013.048,5.317,5.317,0,0,1,.938.035,4.959,4.959,0,0,1,2.538,1.49c1.222,1.044,2.841,1.333,4.072,2.43,1.086.97,1.313,3.633,3.141,2.806.742-.337,1.546-2.215,2.068-2.929a15.693,15.693,0,0,1,1.963-2.462,10.917,10.917,0,0,0,2.917-3.724c.351-.767.723-1.5,1.1-2.232a4.4,4.4,0,0,1,1.475.716c.468.363.779,1.225,1.44,1.317.549.078,1.373-.621,1.818-.814,2.026-.875,2.364-.427,4.012.869A10.746,10.746,0,0,0,942,251.762a15.724,15.724,0,0,1,3.4.367,5.158,5.158,0,0,0,1.014.048,5.3,5.3,0,0,1,.937.035,4.975,4.975,0,0,1,2.539,1.49c1.221,1.044,2.839,1.333,4.072,2.43,1.085.97,1.312,3.633,3.138,2.806.744-.337,1.547-2.215,2.068-2.929a15.771,15.771,0,0,1,1.963-2.462,10.905,10.905,0,0,0,2.919-3.724c.476-1.038.985-2.011,1.5-3.011a12.4,12.4,0,0,1,.533-1.287c.2-.252.681-.407.91-.692.452-.558.606-1.358,1.045-1.958a5.9,5.9,0,0,1,2.721-2.5,7.619,7.619,0,0,1,2.061-.322,10.494,10.494,0,0,0,2.435-.574c1.139-.452,1.563-1.266,2.49-1.929.957-.686,1.467-.9,2.023-1.986a41.991,41.991,0,0,1,1.954-4.208,11.82,11.82,0,0,1,2.857-2.667c1.079.13,2.185-.193,3.154.691.577.525.831,1.61,1.667,1.853s1.011-.369,1.619-.663c1.276-.618,1.557.464,2.775.726,1.376.3,1.872-.092,3.2.584a2.368,2.368,0,0,0,1.569.145,3.25,3.25,0,0,1,1.24-.013c1,.217,1.331,1.235,2.178,1.616a2.629,2.629,0,0,0,1.427.044,2.321,2.321,0,0,1,1.549.111c.5.309.319.738.9.929a4.785,4.785,0,0,0,1-.038c1.72-.06.978.324,2.023,1.369.629.629,1.9.477,2.617,1.074,1.284,1.067,1.695,3.113,2.9,4.368,1.229,1.281,2.588,1.544,4.192,2.08,1.388.461,2.592,1.455,3.987,1.974.947.356,1.8.206,2.711.467a9.279,9.279,0,0,1,1.572.868c.545.328.761.814,1.259,1.181a1.611,1.611,0,0,0,1.865,0,2.128,2.128,0,0,1,1.306-.285c1.265.24,1.3,3.061,1.55,4.032.572,2.261,1.738,2.27,2.794.464,2.446-4.179,8.018-3.006,12.219-3.428,1.714-.171,1.275-2.241,3.156-1.929,1.695.281,3.071,2.261,4.64,2.907,1.191.492,2.19,1.418,3.381,1.841a13.869,13.869,0,0,0,4.839.584,18.5,18.5,0,0,1,4.71.537,50.729,50.729,0,0,1,7.668,2.894c1.9.8,3.786,1.944,5.623,1.011.511.672.426,1.835,1.2,2.291a1.179,1.179,0,0,0,.82.088,1.761,1.761,0,0,1,.547-.016c.38.067.875.5,1.3.508h.015a.526.526,0,0,0,.171-.029c.463-.162.735-1.487.937-1.809.363-.584.722-1.066,1.063-1.644a27.1,27.1,0,0,1,2.383-2.961,26.03,26.03,0,0,1,1.985-2.816,8.026,8.026,0,0,1,1.218-.932,4.652,4.652,0,0,0,.809.454c1.191.492,2.19,1.418,3.38,1.841a13.885,13.885,0,0,0,4.84.584,18.478,18.478,0,0,1,4.709.537,50.631,50.631,0,0,1,7.67,2.894c1.9.8,3.786,1.944,5.623,1.011.511.672.427,1.835,1.2,2.291a1.181,1.181,0,0,0,.82.088,1.76,1.76,0,0,1,.547-.016c.38.067.875.5,1.3.508h.015a.527.527,0,0,0,.171-.029c.463-.162.735-1.487.937-1.809.363-.584.722-1.066,1.063-1.644a27.3,27.3,0,0,1,2.383-2.961,26.237,26.237,0,0,1,1.985-2.816c1.071-1.038,2.333-1.358,3.116-2.664.846-1.414,1.784-2.734,2.689-4.12.019-.032.039-.063.057-.1q.217-.384.426-.774c.245-.46.468-.932.693-1.4a24.473,24.473,0,0,1,3.725,1.751,90.388,90.388,0,0,0,9.024,3.9c1.475.514,3.205.413,4.513,1.426.468.363.779,1.225,1.442,1.317.547.078,1.371-.621,1.818-.814,2.023-.875,2.362-.427,4.01.869a10.746,10.746,0,0,0,6.768,2.081,15.727,15.727,0,0,1,3.4.367,5.148,5.148,0,0,0,1.013.048,5.313,5.313,0,0,1,.938.035,4.953,4.953,0,0,1,2.538,1.49c1.222,1.044,2.843,1.333,4.072,2.43,1.086.97,1.313,3.633,3.141,2.806.742-.337,1.546-2.215,2.068-2.929a15.7,15.7,0,0,1,1.963-2.462,10.915,10.915,0,0,0,2.917-3.724c.287-.628.589-1.232.9-1.834a3.8,3.8,0,0,1,.487.318c.47.363.779,1.225,1.442,1.317.547.078,1.373-.621,1.818-.814,2.024-.875,2.362-.427,4.012.869a10.741,10.741,0,0,0,6.766,2.081,15.738,15.738,0,0,1,3.406.367,5.149,5.149,0,0,0,1.013.048,5.318,5.318,0,0,1,.938.035,4.959,4.959,0,0,1,2.538,1.49c1.222,1.044,2.841,1.333,4.072,2.43,1.086.97,1.311,3.633,3.14,2.806.744-.337,1.547-2.215,2.068-2.929a15.782,15.782,0,0,1,1.963-2.462,10.9,10.9,0,0,0,2.917-3.724c.476-1.038.987-2.011,1.5-3.011a12.723,12.723,0,0,1,.534-1.287c.2-.252.681-.407.912-.692.451-.558.606-1.358,1.042-1.958a5.9,5.9,0,0,1,2.724-2.5,7.581,7.581,0,0,1,2.058-.322,10.506,10.506,0,0,0,2.437-.574c1.137-.452,1.563-1.266,2.49-1.929.957-.686,1.465-.9,2.023-1.986a41.374,41.374,0,0,1,1.954-4.208,12.382,12.382,0,0,1,3.2-2.9c1.332.634,2.778-.192,4,.928.577.525.831,1.61,1.667,1.853s1.011-.369,1.619-.663c1.276-.618,1.557.464,2.775.726,1.376.3,1.872-.092,3.2.584a2.369,2.369,0,0,0,1.569.145,3.249,3.249,0,0,1,1.24-.013c1,.217,1.331,1.235,2.178,1.616a2.63,2.63,0,0,0,1.427.044,2.321,2.321,0,0,1,1.548.111c.5.309.319.738.9.929a4.783,4.783,0,0,0,1-.038c1.72-.06.978.324,2.023,1.369.629.629,1.9.477,2.617,1.074,1.284,1.067,1.695,3.113,2.9,4.368,1.229,1.281,2.588,1.544,4.192,2.08,1.388.461,2.592,1.455,3.989,1.974.946.356,1.8.206,2.709.467a9.232,9.232,0,0,1,1.572.868c.544.328.761.814,1.259,1.181a1.611,1.611,0,0,0,1.865,0,2.13,2.13,0,0,1,1.306-.285c1.265.24,1.3,3.061,1.55,4.032.572,2.261,1.737,2.27,2.794.464,2.446-4.179,8.018-3.006,12.219-3.428,1.714-.171,1.275-2.241,3.156-1.929,1.7.281,3.071,2.261,4.64,2.907,1.191.492,2.189,1.418,3.381,1.841a13.868,13.868,0,0,0,4.839.584,18.5,18.5,0,0,1,4.71.537,50.729,50.729,0,0,1,7.668,2.894c1.9.8,3.786,1.944,5.623,1.011.511.672.427,1.835,1.2,2.291a1.179,1.179,0,0,0,.819.088,1.762,1.762,0,0,1,.547-.016c.38.067.875.5,1.3.508h.015a.524.524,0,0,0,.171-.029c.463-.162.735-1.487.937-1.809.363-.584.722-1.066,1.063-1.644a27.1,27.1,0,0,1,2.383-2.961,25.772,25.772,0,0,1,1.986-2.816,6.039,6.039,0,0,1,.676-.559c.053.025.1.06.157.081,1.193.492,2.191,1.418,3.381,1.841a13.876,13.876,0,0,0,4.839.584,18.508,18.508,0,0,1,4.712.537,50.716,50.716,0,0,1,7.668,2.894c1.9.8,3.785,1.944,5.623,1.011.511.672.426,1.835,1.2,2.291a1.179,1.179,0,0,0,.82.088,1.752,1.752,0,0,1,.546-.016c.382.067.877.5,1.3.508h.015a.527.527,0,0,0,.171-.029c.463-.162.735-1.487.937-1.809.364-.584.721-1.066,1.064-1.644a27.44,27.44,0,0,1,2.383-2.961,26.029,26.029,0,0,1,1.985-2.816c1.071-1.038,2.334-1.358,3.115-2.664.847-1.414,1.786-2.734,2.689-4.12.022-.032.039-.063.058-.1.146-.256.287-.514.426-.774.641-1.2,1.2-2.462,1.726-3.715a4.744,4.744,0,0,1,2.725,0,40.126,40.126,0,0,0,4.356.729c2.277.4,3.53,1.452,5.379,2.718a11.43,11.43,0,0,0,3.044,1.587,5.568,5.568,0,0,1,1.712.584c1.12.727,1.527,1.058,2.906.767a35.694,35.694,0,0,0,5.5-1.862,7.017,7.017,0,0,1,3.226-.5,10.336,10.336,0,0,0,2.383.223c1.749-.394,2.766-2.317,4.785-2.077,1.469.174,3.11,1.281,4.392,1.893a90.509,90.509,0,0,0,9.023,3.9c1.477.514,3.207.413,4.512,1.426.468.363.779,1.225,1.442,1.317.547.078,1.373-.621,1.818-.814,2.023-.875,2.364-.427,4.012.869a10.746,10.746,0,0,0,6.768,2.081,15.707,15.707,0,0,1,3.4.367,5.171,5.171,0,0,0,1.015.048,5.313,5.313,0,0,1,.938.035,4.964,4.964,0,0,1,2.538,1.49c1.222,1.044,2.841,1.333,4.072,2.43,1.086.97,1.313,3.633,3.14,2.806.743-.337,1.547-2.215,2.068-2.929a15.69,15.69,0,0,1,1.963-2.462,10.9,10.9,0,0,0,2.918-3.724c.474-1.038.985-2.011,1.5-3.011a12.388,12.388,0,0,1,.531-1.287c.2-.252.682-.407.912-.692.452-.558.606-1.358,1.044-1.958a5.907,5.907,0,0,1,2.722-2.5,7.622,7.622,0,0,1,2.061-.322,10.479,10.479,0,0,0,2.434-.574c1.139-.452,1.565-1.266,2.49-1.929.959-.686,1.467-.9,2.024-1.986a41.641,41.641,0,0,1,1.954-4.208,12.722,12.722,0,0,1,3.366-3.021,7.531,7.531,0,0,1,5.893-1.1,15.73,15.73,0,0,0,8.813-.867c1.2-.521,2.576-1.3,3.845-.467.866.569,1.2,1.712,1.854,2.472,1.557.039,2.567-2.986,4.271-3.369.891,1.206-.622,3.937,1.695,2.866a9.7,9.7,0,0,1,4.306-.992c1.127-.022,2.055-.493,3.17-.509,1.467-.023,1.8.665,2.784,1.617,1.5,1.453,3.242.078,4.681,1.39.578.525.831,1.61,1.669,1.853s1.01-.369,1.619-.663c1.275-.618,1.557.464,2.774.726,1.377.3,1.873-.092,3.2.584a2.369,2.369,0,0,0,1.569.145,3.25,3.25,0,0,1,1.24-.013c1,.217,1.331,1.235,2.179,1.616a2.624,2.624,0,0,0,1.426.044,2.326,2.326,0,0,1,1.55.111c.5.309.319.738.9.929a4.777,4.777,0,0,0,1-.038c1.72-.06.978.324,2.024,1.369.628.629,1.9.477,2.617,1.074,1.284,1.067,1.695,3.113,2.9,4.368,1.229,1.281,2.588,1.544,4.192,2.08,1.386.461,2.591,1.455,3.987,1.974.946.356,1.8.206,2.709.467a9.225,9.225,0,0,1,1.572.868c.546.328.762.814,1.259,1.181a1.611,1.611,0,0,0,1.865,0,2.133,2.133,0,0,1,1.307-.285c1.265.24,1.3,3.061,1.549,4.032.574,2.261,1.738,2.27,2.794.464,2.446-4.179,8.018-3.006,12.219-3.428,1.714-.171,1.276-2.241,3.157-1.929,1.695.281,3.071,2.261,4.64,2.907,1.19.492,2.188,1.418,3.38,1.841a13.884,13.884,0,0,0,4.84.584,18.485,18.485,0,0,1,4.709.537,50.674,50.674,0,0,1,7.668,2.894c1.9.8,3.788,1.944,5.623,1.011.511.672.429,1.835,1.2,2.291a1.18,1.18,0,0,0,.82.088,1.761,1.761,0,0,1,.547-.016c.381.067.875.5,1.3.508h.015a.522.522,0,0,0,.171-.029c.462-.162.736-1.487.937-1.809.364-.584.723-1.066,1.064-1.644a27.336,27.336,0,0,1,2.383-2.961,25.827,25.827,0,0,1,1.985-2.816c1.071-1.038,2.333-1.358,3.116-2.664.846-1.414,1.784-2.734,2.689-4.12.019-.032.038-.063.056-.1q.22-.384.427-.774c.565-1.063,1.064-2.169,1.534-3.276a5.01,5.01,0,0,1,3.87-.438,40.136,40.136,0,0,0,4.356.729c2.278.4,3.531,1.452,5.379,2.718a11.449,11.449,0,0,0,3.043,1.587,5.562,5.562,0,0,1,1.714.584c1.12.727,1.527,1.058,2.906.767a35.688,35.688,0,0,0,5.5-1.862,7.016,7.016,0,0,1,3.226-.5,10.334,10.334,0,0,0,2.383.223c1.749-.394,2.767-2.317,4.785-2.077,1.47.174,3.112,1.281,4.392,1.893a90.425,90.425,0,0,0,9.025,3.9c1.475.514,3.205.413,4.511,1.426.468.363.779,1.225,1.442,1.317.547.078,1.373-.621,1.818-.814,2.023-.875,2.364-.427,4.012.869a10.745,10.745,0,0,0,6.768,2.081,15.711,15.711,0,0,1,3.4.367,5.166,5.166,0,0,0,1.014.048,5.311,5.311,0,0,1,.938.035,4.966,4.966,0,0,1,2.538,1.49c1.222,1.044,2.841,1.333,4.072,2.43,1.086.97,1.313,3.633,3.14,2.806.743-.337,1.547-2.215,2.068-2.929a15.7,15.7,0,0,1,1.963-2.462,10.922,10.922,0,0,0,2.919-3.724c.474-1.038.985-2.011,1.5-3.011a12.309,12.309,0,0,1,.531-1.287c.2-.252.682-.407.912-.692.453-.558.606-1.358,1.044-1.958a5.909,5.909,0,0,1,2.723-2.5,7.618,7.618,0,0,1,2.061-.322,10.482,10.482,0,0,0,2.434-.574c1.139-.452,1.564-1.266,2.491-1.929.957-.686,1.467-.9,2.023-1.986a41.928,41.928,0,0,1,1.953-4.208,12.731,12.731,0,0,1,3.368-3.021,7.531,7.531,0,0,1,5.893-1.1,15.729,15.729,0,0,0,8.813-.867c1.2-.521,2.576-1.3,3.845-.467.867.569,1.2,1.712,1.855,2.472,1.557.039,2.567-2.986,4.271-3.369.891,1.206-.622,3.937,1.695,2.866a9.7,9.7,0,0,1,4.306-.992c1.127-.022,2.055-.493,3.171-.509,1.466-.023,1.8.665,2.784,1.617,1.5,1.453,3.242.078,4.681,1.39.578.525.831,1.61,1.669,1.853s1.01-.369,1.62-.663c1.273-.618,1.556.464,2.772.726,1.377.3,1.874-.092,3.2.584a2.368,2.368,0,0,0,1.569.145,3.251,3.251,0,0,1,1.24-.013c.995.217,1.33,1.235,2.179,1.616a2.625,2.625,0,0,0,1.426.044,2.326,2.326,0,0,1,1.55.111c.5.309.319.738.9.929a4.778,4.778,0,0,0,1-.038c1.72-.06.978.324,2.024,1.369.628.629,1.9.477,2.615,1.074,1.285,1.067,1.695,3.113,2.9,4.368,1.229,1.281,2.589,1.544,4.192,2.08,1.386.461,2.591,1.455,3.987,1.974.947.356,1.8.206,2.709.467a9.243,9.243,0,0,1,1.573.868c.544.328.761.814,1.259,1.181a1.609,1.609,0,0,0,1.864,0,2.132,2.132,0,0,1,1.307-.285c1.265.24,1.3,3.061,1.549,4.032.573,2.261,1.737,2.27,2.794.464,2.446-4.179,8.018-3.006,12.219-3.428,1.714-.171,1.276-2.241,3.157-1.929,1.695.281,3.071,2.261,4.64,2.907,1.192.492,2.188,1.418,3.38,1.841a13.885,13.885,0,0,0,4.84.584,18.483,18.483,0,0,1,4.708.537,50.66,50.66,0,0,1,7.668,2.894c1.9.8,3.788,1.944,5.623,1.011.511.672.429,1.835,1.2,2.291a1.176,1.176,0,0,0,.818.088,1.761,1.761,0,0,1,.547-.016c.38.067.875.5,1.3.508h.015a.518.518,0,0,0,.171-.029c.463-.162.736-1.487.937-1.809.365-.584.723-1.066,1.064-1.644a27.128,27.128,0,0,1,2.383-2.961,26.049,26.049,0,0,1,1.985-2.816c1.071-1.038,2.333-1.358,3.116-2.664.846-1.414,1.784-2.734,2.687-4.12.021-.032.04-.063.057-.1q.219-.384.427-.774c.645-1.213,1.212-2.481,1.739-3.743a15.621,15.621,0,0,0,.953-2.718c.164-.774-.079-.966-.19-1.553-.45-2.364-.059-5.2-.059-7.617V0Z" fill="#dadbe0"/>
    </clipPath>
    <clipPath id="clip-path-3">
      <path id="Path_35445-2" data-name="Path 35445" d="M1919.992,0V4.682a2.671,2.671,0,0,0,1.257,2.238,10.349,10.349,0,1,1-11.114-.018,2.63,2.63,0,0,0,1.233-2.219V0h-29.2V4.682a2.669,2.669,0,0,0,1.259,2.238,10.35,10.35,0,1,1-11.114-.018,2.63,2.63,0,0,0,1.232-2.219V0h-29.2V4.682A2.667,2.667,0,0,0,1845.6,6.92a10.35,10.35,0,1,1-11.114-.018,2.628,2.628,0,0,0,1.231-2.219V0h-29.2V4.682a2.671,2.671,0,0,0,1.257,2.238,10.349,10.349,0,1,1-11.113-.018,2.631,2.631,0,0,0,1.234-2.219V0h-29.2V4.682a2.668,2.668,0,0,0,1.257,2.238,10.35,10.35,0,1,1-11.112-.018,2.629,2.629,0,0,0,1.231-2.219V0h-29.2V4.682a2.672,2.672,0,0,0,1.256,2.238,10.349,10.349,0,1,1-11.112-.018,2.628,2.628,0,0,0,1.231-2.219V0h-29.2V4.682A2.669,2.669,0,0,0,1694.3,6.92a10.349,10.349,0,1,1-11.115-.018,2.63,2.63,0,0,0,1.233-2.219V0h-30.339V4.682a2.671,2.671,0,0,0,1.257,2.238,10.331,10.331,0,0,1-5,19.029c-.22-.012-.438-.015-.66-.04A10.342,10.342,0,0,1,1645.366,6.9a2.628,2.628,0,0,0,1.231-2.219V0h-30.339V4.682a2.667,2.667,0,0,0,1.257,2.238A10.35,10.35,0,1,1,1606.4,6.9a2.63,2.63,0,0,0,1.233-2.219V0h-29.2V4.682a2.667,2.667,0,0,0,1.257,2.238,10.351,10.351,0,1,1-11.114-.018,2.629,2.629,0,0,0,1.231-2.219V0h-29.2V4.682a2.671,2.671,0,0,0,1.257,2.238,10.349,10.349,0,1,1-11.114-.018,2.631,2.631,0,0,0,1.234-2.219V0h-29.2V4.682a2.667,2.667,0,0,0,1.257,2.238,10.35,10.35,0,1,1-11.114-.018,2.627,2.627,0,0,0,1.233-2.219V0h-29.2V4.682a2.673,2.673,0,0,0,1.256,2.238A10.349,10.349,0,1,1,1455.1,6.9a2.628,2.628,0,0,0,1.231-2.219V0h-29.2V4.682a2.669,2.669,0,0,0,1.259,2.238,10.349,10.349,0,1,1-11.115-.018,2.63,2.63,0,0,0,1.232-2.219V0h-29.384V4.682a2.669,2.669,0,0,0,1.256,2.238,10.264,10.264,0,1,1-10.926-.018,2.628,2.628,0,0,0,1.231-2.219V0H1351.3V4.682a2.671,2.671,0,0,0,1.257,2.238,10.336,10.336,0,0,1-5.44,19.051c-.332-.007-.669-.023-1.007-.061A10.342,10.342,0,0,1,1341.792,6.9a2.628,2.628,0,0,0,1.231-2.219V0h-29.548V4.682a2.669,2.669,0,0,0,1.259,2.238,10.336,10.336,0,0,1-5.439,19.051c-.335-.007-.67-.023-1.01-.061A10.343,10.343,0,0,1,1303.969,6.9a2.633,2.633,0,0,0,1.232-2.219V0h-29.548V4.682a2.669,2.669,0,0,0,1.256,2.238,10.336,10.336,0,0,1-5.439,19.051c-.334-.007-.669-.023-1.008-.061A10.342,10.342,0,0,1,1266.143,6.9a2.63,2.63,0,0,0,1.232-2.219V0h-29.548V4.682a2.671,2.671,0,0,0,1.257,2.238,10.336,10.336,0,0,1-5.439,19.051c-.334-.007-.671-.023-1.009-.061A10.342,10.342,0,0,1,1228.319,6.9a2.628,2.628,0,0,0,1.231-2.219V0H1200V4.682a2.669,2.669,0,0,0,1.259,2.238,10.336,10.336,0,0,1-5.439,19.051c-.334-.007-.669-.023-1.01-.061A10.343,10.343,0,0,1,1190.495,6.9a2.633,2.633,0,0,0,1.232-2.219V0h-29.548V4.682a2.67,2.67,0,0,0,1.256,2.238A10.336,10.336,0,0,1,1158,25.971c-.334-.007-.669-.023-1.009-.061A10.342,10.342,0,0,1,1152.669,6.9a2.626,2.626,0,0,0,1.232-2.219V0h-29.548V4.682a2.669,2.669,0,0,0,1.259,2.238,10.337,10.337,0,0,1-5.441,19.051c-.332-.007-.669-.023-1.008-.061A10.342,10.342,0,0,1,1114.845,6.9a2.628,2.628,0,0,0,1.231-2.219V0h-30.337V4.682A2.667,2.667,0,0,0,1087,6.92a10.331,10.331,0,0,1-5,19.029c-.218-.012-.436-.015-.659-.04A10.343,10.343,0,0,1,1077.021,6.9a2.634,2.634,0,0,0,1.232-2.219V0h-30.34V4.682a2.671,2.671,0,0,0,1.257,2.238,10.332,10.332,0,0,1-5.162,19.038c-.262-.012-.524-.018-.789-.048A10.343,10.343,0,0,1,1038.9,6.9a2.629,2.629,0,0,0,1.231-2.219V0h-30.043V4.682a2.667,2.667,0,0,0,1.257,2.238,10.332,10.332,0,0,1-5.162,19.038c-.262-.012-.524-.018-.789-.048A10.342,10.342,0,0,1,1001.078,6.9a2.633,2.633,0,0,0,1.232-2.219V0H972.265V4.682a2.671,2.671,0,0,0,1.257,2.238,10.332,10.332,0,0,1-5.162,19.038c-.262-.012-.524-.018-.79-.048A10.342,10.342,0,0,1,963.253,6.9a2.629,2.629,0,0,0,1.231-2.219V0H934.44V4.682A2.669,2.669,0,0,0,935.7,6.92a10.332,10.332,0,0,1-5.164,19.038c-.262-.012-.524-.018-.789-.048A10.343,10.343,0,0,1,925.428,6.9a2.63,2.63,0,0,0,1.232-2.219V0H896.615V4.682a2.668,2.668,0,0,0,1.257,2.238,10.332,10.332,0,0,1-5.162,19.038c-.262-.012-.524-.018-.789-.048A10.342,10.342,0,0,1,887.6,6.9a2.63,2.63,0,0,0,1.233-2.219V0H858.791V4.682a2.671,2.671,0,0,0,1.257,2.238,10.332,10.332,0,0,1-5.162,19.038c-.262-.01-.524-.018-.79-.048A10.342,10.342,0,0,1,849.78,6.9a2.628,2.628,0,0,0,1.231-2.219V0H820.781V4.682a2.668,2.668,0,0,0,1.257,2.238,10.331,10.331,0,0,1-5.183,19.036c-.256-.012-.511-.018-.77-.047A10.343,10.343,0,0,1,811.768,6.9,2.63,2.63,0,0,0,813,4.684V0H782.956V4.682a2.671,2.671,0,0,0,1.257,2.238,10.332,10.332,0,0,1-5.162,19.038c-.262-.012-.522-.018-.789-.048A10.342,10.342,0,0,1,773.946,6.9a2.628,2.628,0,0,0,1.231-2.219V0H745.132V4.682a2.671,2.671,0,0,0,1.257,2.238,10.332,10.332,0,0,1-5.162,19.038c-.262-.012-.524-.018-.79-.048A10.343,10.343,0,0,1,736.12,6.9a2.63,2.63,0,0,0,1.232-2.219V0H707.308V4.682a2.667,2.667,0,0,0,1.257,2.238A10.332,10.332,0,0,1,703.4,25.958c-.262-.012-.524-.018-.789-.048A10.343,10.343,0,0,1,698.295,6.9a2.63,2.63,0,0,0,1.232-2.219V0H669.484V4.682a2.668,2.668,0,0,0,1.257,2.238,10.332,10.332,0,0,1-5.164,19.038c-.262-.012-.523-.018-.789-.048A10.342,10.342,0,0,1,660.472,6.9,2.632,2.632,0,0,0,661.7,4.684V0H631.658V4.682a2.671,2.671,0,0,0,1.257,2.238,10.332,10.332,0,0,1-5.162,19.038c-.262-.012-.524-.018-.79-.048A10.343,10.343,0,0,1,622.647,6.9a2.63,2.63,0,0,0,1.232-2.219V0H593.833V4.682a2.669,2.669,0,0,0,1.259,2.238,10.332,10.332,0,0,1-5.162,19.038c-.262-.012-.524-.018-.789-.048A10.342,10.342,0,0,1,584.823,6.9a2.63,2.63,0,0,0,1.232-2.219V0H556.01V4.682a2.667,2.667,0,0,0,1.257,2.238,10.341,10.341,0,0,1-5.6,19.058,10.726,10.726,0,0,1-1.139-.069A10.342,10.342,0,0,1,546.208,6.9a2.632,2.632,0,0,0,1.231-2.219V0h-29.2V4.682A2.667,2.667,0,0,0,519.5,6.92,10.35,10.35,0,1,1,508.382,6.9a2.633,2.633,0,0,0,1.232-2.219V0h-29.2V4.682a2.669,2.669,0,0,0,1.259,2.238A10.35,10.35,0,1,1,470.558,6.9a2.629,2.629,0,0,0,1.231-2.219V0h-29.2V4.682a2.671,2.671,0,0,0,1.257,2.238A10.349,10.349,0,1,1,432.733,6.9a2.63,2.63,0,0,0,1.232-2.219V0h-29.2V4.682a2.667,2.667,0,0,0,1.257,2.238A10.35,10.35,0,1,1,394.909,6.9a2.63,2.63,0,0,0,1.232-2.219V0h-29.2V4.682A2.674,2.674,0,0,0,368.2,6.92,10.35,10.35,0,1,1,357.085,6.9a2.629,2.629,0,0,0,1.231-2.219V0h-29.2V4.682a2.671,2.671,0,0,0,1.257,2.238A10.348,10.348,0,1,1,319.259,6.9a2.63,2.63,0,0,0,1.232-2.219V0H291.106V4.682a2.667,2.667,0,0,0,1.257,2.238A10.264,10.264,0,1,1,281.435,6.9a2.63,2.63,0,0,0,1.232-2.219V0H253.282V4.682a2.671,2.671,0,0,0,1.257,2.238A10.35,10.35,0,1,1,243.425,6.9a2.628,2.628,0,0,0,1.231-2.219V0h-29.2V4.682a2.669,2.669,0,0,0,1.259,2.238A10.35,10.35,0,1,1,205.6,6.9a2.633,2.633,0,0,0,1.232-2.219V0h-29.2V4.682a2.667,2.667,0,0,0,1.257,2.238A10.35,10.35,0,1,1,167.777,6.9a2.628,2.628,0,0,0,1.231-2.219V0h-29.2V4.682a2.671,2.671,0,0,0,1.257,2.238A10.35,10.35,0,1,1,129.952,6.9a2.628,2.628,0,0,0,1.231-2.219V0h-29.2V4.682a2.669,2.669,0,0,0,1.259,2.238A10.35,10.35,0,1,1,92.128,6.9,2.63,2.63,0,0,0,93.36,4.684V0H64.16V4.682A2.669,2.669,0,0,0,65.416,6.92,10.35,10.35,0,1,1,54.3,6.9a2.628,2.628,0,0,0,1.231-2.219V0h-29.2V4.682A2.671,2.671,0,0,0,27.592,6.92,10.348,10.348,0,1,1,16.478,6.9,2.63,2.63,0,0,0,17.71,4.684V0H0V232.683a15.94,15.94,0,0,0,.165,2.256c.174,1.232-.3,2.5.323,3.639.47.868.448,1.714.858,2.559.344.711.076.65.826.88a5.145,5.145,0,0,0,1.244-.022,14.887,14.887,0,0,1,1.963-.012,7.238,7.238,0,0,1,1.071.391c1.535.342,2.739-.274,4.142-.869a27.969,27.969,0,0,1,6.982-1.85c2.3-.319,4.549.227,6.821.506a2.555,2.555,0,0,0,1.585.288,5.718,5.718,0,0,1,1.721-.457,5,5,0,0,1,1.449.4,29.807,29.807,0,0,1,3.006,1.674c1.287.6,2.635-.06,3.814-.621,2.635-1.254,4.371-3.409,7.473-2.519a40.158,40.158,0,0,0,4.354.729c2.279.4,3.53,1.452,5.379,2.718a11.462,11.462,0,0,0,3.046,1.587,5.6,5.6,0,0,1,1.712.584c1.12.727,1.527,1.058,2.9.767a35.671,35.671,0,0,0,5.5-1.862,7.01,7.01,0,0,1,3.223-.5,10.351,10.351,0,0,0,2.383.223c1.749-.394,2.768-2.317,4.786-2.077,1.47.174,3.112,1.281,4.392,1.893a90.571,90.571,0,0,0,9.025,3.9c1.475.514,3.205.413,4.511,1.426.468.363.779,1.225,1.442,1.317.547.078,1.371-.621,1.818-.814,2.024-.875,2.364-.427,4.012.869a10.741,10.741,0,0,0,6.767,2.081,15.738,15.738,0,0,1,3.406.367,5.148,5.148,0,0,0,1.013.048,5.318,5.318,0,0,1,.938.035,4.959,4.959,0,0,1,2.538,1.49c1.222,1.044,2.84,1.333,4.072,2.43,1.085.97,1.311,3.633,3.14,2.806.744-.337,1.547-2.215,2.068-2.929a15.774,15.774,0,0,1,1.963-2.462,10.917,10.917,0,0,0,2.917-3.724c.476-1.038.985-2.011,1.5-3.011a12.066,12.066,0,0,1,.534-1.287c.2-.252.681-.407.912-.692.451-.558.606-1.358,1.042-1.958a5.9,5.9,0,0,1,2.724-2.5,7.581,7.581,0,0,1,2.058-.322,10.494,10.494,0,0,0,2.436-.574c1.139-.452,1.565-1.266,2.49-1.929.959-.686,1.467-.9,2.024-1.986a41.342,41.342,0,0,1,1.954-4.208,12.711,12.711,0,0,1,3.368-3.021,7.527,7.527,0,0,1,5.891-1.1,15.736,15.736,0,0,0,8.814-.867c1.2-.521,2.573-1.3,3.844-.467.868.569,1.2,1.712,1.856,2.472,1.556.039,2.566-2.986,4.27-3.369.891,1.206-.622,3.937,1.695,2.866a9.692,9.692,0,0,1,4.306-.992c1.129-.022,2.055-.493,3.17-.509,1.467-.023,1.8.665,2.782,1.617,1.5,1.453,3.245.078,4.684,1.39.577.525.83,1.61,1.667,1.853s1.01-.369,1.619-.663c1.275-.618,1.556.464,2.775.726,1.374.3,1.872-.092,3.2.584a2.363,2.363,0,0,0,1.568.145,3.25,3.25,0,0,1,1.24-.013c1,.217,1.332,1.235,2.179,1.616a2.624,2.624,0,0,0,1.426.044,2.326,2.326,0,0,1,1.55.111c.5.309.318.738.9.929a4.775,4.775,0,0,0,1-.038c1.72-.06.979.324,2.023,1.369.629.629,1.9.477,2.618,1.074,1.284,1.067,1.695,3.113,2.9,4.368,1.231,1.281,2.589,1.544,4.193,2.08,1.388.461,2.591,1.455,3.987,1.974.947.356,1.8.206,2.711.467a9.267,9.267,0,0,1,1.571.868c.546.328.763.814,1.26,1.181a1.606,1.606,0,0,0,1.862,0,2.137,2.137,0,0,1,1.307-.285c1.266.24,1.3,3.061,1.551,4.032.571,2.261,1.736,2.27,2.793.464,2.446-4.179,8.018-3.006,12.22-3.428,1.712-.171,1.273-2.241,3.154-1.929,1.7.281,3.072,2.261,4.64,2.907,1.193.492,2.191,1.418,3.381,1.841a13.877,13.877,0,0,0,4.839.584,18.515,18.515,0,0,1,4.712.537,50.711,50.711,0,0,1,7.667,2.894c1.9.8,3.786,1.944,5.625,1.011.511.672.426,1.835,1.2,2.291a1.176,1.176,0,0,0,.818.088,1.762,1.762,0,0,1,.547-.016c.382.067.875.5,1.3.508h.015a.527.527,0,0,0,.171-.029c.464-.162.735-1.487.937-1.809.364-.584.722-1.066,1.064-1.644a27.124,27.124,0,0,1,2.383-2.961,26.034,26.034,0,0,1,1.985-2.816c1.071-1.038,2.333-1.358,3.115-2.664.847-1.414,1.786-2.734,2.689-4.12.021-.032.04-.063.059-.1q.22-.384.426-.774c.641-1.2,1.2-2.462,1.726-3.715a4.744,4.744,0,0,1,2.725,0,40.122,40.122,0,0,0,4.356.729c2.277.4,3.53,1.452,5.378,2.718a11.476,11.476,0,0,0,3.044,1.587,5.578,5.578,0,0,1,1.714.584c1.118.727,1.527,1.058,2.905.767a35.69,35.69,0,0,0,5.5-1.862,7.013,7.013,0,0,1,3.224-.5,10.356,10.356,0,0,0,2.384.223c1.749-.394,2.766-2.317,4.783-2.077,1.471.174,3.113,1.281,4.394,1.893a90.278,90.278,0,0,0,9.025,3.9c1.475.514,3.205.413,4.511,1.426.468.363.779,1.225,1.442,1.317.547.078,1.373-.621,1.818-.814,2.023-.875,2.362-.427,4.01.869a10.752,10.752,0,0,0,6.769,2.081,15.711,15.711,0,0,1,3.4.367,5.169,5.169,0,0,0,1.014.048,5.312,5.312,0,0,1,.938.035,4.955,4.955,0,0,1,2.537,1.49c1.224,1.044,2.842,1.333,4.072,2.43,1.087.97,1.314,3.633,3.141,2.806.742-.337,1.546-2.215,2.068-2.929a15.688,15.688,0,0,1,1.963-2.462,10.9,10.9,0,0,0,2.917-3.724c.476-1.038.987-2.011,1.5-3.011a12.369,12.369,0,0,1,.531-1.287c.2-.252.681-.407.912-.692.452-.558.606-1.358,1.044-1.958a5.907,5.907,0,0,1,2.722-2.5,7.619,7.619,0,0,1,2.061-.322,10.512,10.512,0,0,0,2.436-.574c1.136-.452,1.563-1.266,2.49-1.929.957-.686,1.465-.9,2.023-1.986a41.342,41.342,0,0,1,1.954-4.208,12.727,12.727,0,0,1,3.366-3.021,7.531,7.531,0,0,1,5.893-1.1,15.728,15.728,0,0,0,8.813-.867c1.2-.521,2.574-1.3,3.845-.467.867.569,1.2,1.712,1.855,2.472,1.557.039,2.566-2.986,4.271-3.369.891,1.206-.622,3.937,1.693,2.866a9.7,9.7,0,0,1,4.306-.992c1.129-.022,2.056-.493,3.172-.509,1.465-.023,1.8.665,2.784,1.617,1.5,1.453,3.242.078,4.681,1.39.578.525.831,1.61,1.667,1.853s1.011-.369,1.62-.663c1.275-.618,1.556.464,2.774.726,1.377.3,1.874-.092,3.2.584a2.369,2.369,0,0,0,1.569.145,3.25,3.25,0,0,1,1.24-.013c1,.217,1.33,1.235,2.178,1.616a2.63,2.63,0,0,0,1.427.044,2.326,2.326,0,0,1,1.55.111c.5.309.318.738.9.929a4.775,4.775,0,0,0,1-.038c1.72-.06.978.324,2.024,1.369.628.629,1.9.477,2.617,1.074,1.282,1.067,1.694,3.113,2.9,4.368,1.228,1.281,2.588,1.544,4.192,2.08,1.386.461,2.591,1.455,3.987,1.974.947.356,1.8.206,2.709.467a9.236,9.236,0,0,1,1.573.868c.543.328.761.814,1.259,1.181a1.609,1.609,0,0,0,1.863,0,2.133,2.133,0,0,1,1.307-.285c1.265.24,1.3,3.061,1.549,4.032.572,2.261,1.737,2.27,2.794.464,2.446-4.179,8.018-3.006,12.219-3.428,1.714-.171,1.275-2.241,3.157-1.929,1.695.281,3.071,2.261,4.64,2.907,1.19.492,2.188,1.418,3.38,1.841a13.877,13.877,0,0,0,4.84.584,18.484,18.484,0,0,1,4.709.537,50.666,50.666,0,0,1,7.668,2.894c1.9.8,3.786,1.944,5.623,1.011.512.672.429,1.835,1.2,2.291a1.176,1.176,0,0,0,.818.088,1.761,1.761,0,0,1,.547-.016c.381.067.875.5,1.3.508h.015a.527.527,0,0,0,.171-.029c.462-.162.735-1.487.937-1.809.364-.584.722-1.066,1.063-1.644a27.29,27.29,0,0,1,2.384-2.961,25.827,25.827,0,0,1,1.985-2.816c1.071-1.038,2.333-1.358,3.115-2.664.847-1.414,1.786-2.734,2.689-4.12.021-.032.04-.063.057-.1q.22-.384.427-.774c.269-.508.518-1.027.764-1.549.007.015.01.032.018.048.345.711.076.65.826.88a5.143,5.143,0,0,0,1.244-.022,14.89,14.89,0,0,1,1.963-.012,7.349,7.349,0,0,1,1.074.391c1.532.342,2.739-.274,4.139-.869.547-.233,1.112-.443,1.688-.637.72.438,1.418.947,2.231,1.5a11.44,11.44,0,0,0,3.046,1.587,5.6,5.6,0,0,1,1.713.584c1.12.727,1.527,1.058,2.9.767a35.656,35.656,0,0,0,5.5-1.862,7.01,7.01,0,0,1,3.224-.5,10.344,10.344,0,0,0,2.383.223c1.749-.394,2.768-2.317,4.786-2.077,1.468.174,3.112,1.281,4.391,1.893a90.566,90.566,0,0,0,9.025,3.9c1.475.514,3.207.413,4.512,1.426.468.363.779,1.225,1.44,1.317.549.078,1.373-.621,1.818-.814,2.026-.875,2.364-.427,4.012.869a10.746,10.746,0,0,0,6.768,2.081,15.725,15.725,0,0,1,3.4.367,5.163,5.163,0,0,0,1.014.048,5.3,5.3,0,0,1,.937.035,4.969,4.969,0,0,1,2.539,1.49c1.221,1.044,2.84,1.333,4.072,2.43,1.085.97,1.311,3.633,3.138,2.806.744-.337,1.547-2.215,2.068-2.929a15.86,15.86,0,0,1,1.963-2.462,10.9,10.9,0,0,0,2.919-3.724c.351-.767.723-1.5,1.1-2.232a4.4,4.4,0,0,1,1.475.716c.468.363.779,1.225,1.442,1.317.547.078,1.372-.621,1.818-.814,2.023-.875,2.364-.427,4.01.869a10.749,10.749,0,0,0,6.769,2.081,15.732,15.732,0,0,1,3.4.367,5.153,5.153,0,0,0,1.013.048,5.313,5.313,0,0,1,.938.035,4.959,4.959,0,0,1,2.538,1.49c1.224,1.044,2.843,1.333,4.072,2.43,1.086.97,1.315,3.633,3.141,2.806.744-.337,1.546-2.215,2.067-2.929a15.705,15.705,0,0,1,1.964-2.462,10.9,10.9,0,0,0,2.916-3.724c.476-1.038.988-2.011,1.5-3.011a12.365,12.365,0,0,1,.533-1.287c.2-.252.681-.407.912-.692.452-.558.606-1.358,1.044-1.958a5.9,5.9,0,0,1,2.722-2.5,7.6,7.6,0,0,1,2.061-.322,10.5,10.5,0,0,0,2.434-.574c1.137-.452,1.565-1.266,2.49-1.929.957-.686,1.465-.9,2.023-1.986a41.654,41.654,0,0,1,1.954-4.208,11.8,11.8,0,0,1,2.858-2.667c1.079.13,2.184-.193,3.153.691.578.525.83,1.61,1.669,1.853s1.008-.369,1.619-.663c1.275-.618,1.556.464,2.772.726,1.377.3,1.873-.092,3.2.584a2.367,2.367,0,0,0,1.569.145,3.242,3.242,0,0,1,1.238-.013c1,.217,1.33,1.235,2.181,1.616a2.624,2.624,0,0,0,1.426.044,2.326,2.326,0,0,1,1.55.111c.5.309.318.738.9.929a4.784,4.784,0,0,0,1-.038c1.718-.06.978.324,2.023,1.369.629.629,1.9.477,2.617,1.074,1.285,1.067,1.7,3.113,2.9,4.368,1.231,1.281,2.589,1.544,4.193,2.08,1.388.461,2.589,1.455,3.986,1.974.947.356,1.8.206,2.711.467a9.28,9.28,0,0,1,1.572.868c.544.328.761.814,1.26,1.181a1.606,1.606,0,0,0,1.862,0,2.135,2.135,0,0,1,1.307-.285c1.266.24,1.3,3.061,1.55,4.032.572,2.261,1.737,2.27,2.793.464,2.447-4.179,8.019-3.006,12.222-3.428,1.712-.171,1.273-2.241,3.154-1.929,1.695.281,3.071,2.261,4.64,2.907,1.191.492,2.19,1.418,3.38,1.841a13.888,13.888,0,0,0,4.84.584,18.477,18.477,0,0,1,4.709.537,50.624,50.624,0,0,1,7.67,2.894c1.9.8,3.787,1.944,5.623,1.011.512.672.427,1.835,1.2,2.291a1.181,1.181,0,0,0,.82.088,1.76,1.76,0,0,1,.547-.016c.381.067.875.5,1.3.508h.015a.527.527,0,0,0,.171-.029c.462-.162.735-1.487.937-1.809.364-.584.722-1.066,1.063-1.644a27.3,27.3,0,0,1,2.383-2.961,26.245,26.245,0,0,1,1.985-2.816,8.029,8.029,0,0,1,1.218-.932,4.663,4.663,0,0,0,.809.454c1.191.492,2.19,1.418,3.381,1.841a13.868,13.868,0,0,0,4.839.584,18.5,18.5,0,0,1,4.71.537,50.672,50.672,0,0,1,7.668,2.894c1.9.8,3.785,1.944,5.623,1.011.511.672.427,1.835,1.2,2.291a1.18,1.18,0,0,0,.82.088,1.759,1.759,0,0,1,.547-.016c.38.067.875.5,1.3.508h.015a.512.512,0,0,0,.17-.029c.464-.162.736-1.487.938-1.809.365-.584.72-1.066,1.063-1.644a27.312,27.312,0,0,1,2.384-2.961,25.8,25.8,0,0,1,1.983-2.816c1.073-1.038,2.334-1.358,3.115-2.664.847-1.414,1.787-2.734,2.69-4.12.021-.032.038-.063.057-.1q.22-.384.427-.774c.195-.366.37-.745.552-1.118,1.024.424,2.049,1.054,2.911,1.465a90.376,90.376,0,0,0,9.024,3.9c1.475.514,3.205.413,4.512,1.426.468.363.779,1.225,1.442,1.317.547.078,1.371-.621,1.818-.814,2.023-.875,2.362-.427,4.01.869a10.745,10.745,0,0,0,6.768,2.081,15.736,15.736,0,0,1,3.4.367,5.148,5.148,0,0,0,1.013.048,5.317,5.317,0,0,1,.938.035,4.959,4.959,0,0,1,2.538,1.49c1.222,1.044,2.841,1.333,4.072,2.43,1.086.97,1.313,3.633,3.141,2.806.742-.337,1.546-2.215,2.068-2.929a15.693,15.693,0,0,1,1.963-2.462,10.917,10.917,0,0,0,2.917-3.724c.351-.767.723-1.5,1.1-2.232a4.4,4.4,0,0,1,1.475.716c.468.363.779,1.225,1.44,1.317.549.078,1.373-.621,1.818-.814,2.026-.875,2.364-.427,4.012.869A10.746,10.746,0,0,0,942,251.762a15.724,15.724,0,0,1,3.4.367,5.158,5.158,0,0,0,1.014.048,5.3,5.3,0,0,1,.937.035,4.975,4.975,0,0,1,2.539,1.49c1.221,1.044,2.839,1.333,4.072,2.43,1.085.97,1.312,3.633,3.138,2.806.744-.337,1.547-2.215,2.068-2.929a15.771,15.771,0,0,1,1.963-2.462,10.905,10.905,0,0,0,2.919-3.724c.476-1.038.985-2.011,1.5-3.011a12.4,12.4,0,0,1,.533-1.287c.2-.252.681-.407.91-.692.452-.558.606-1.358,1.045-1.958a5.9,5.9,0,0,1,2.721-2.5,7.619,7.619,0,0,1,2.061-.322,10.494,10.494,0,0,0,2.435-.574c1.139-.452,1.563-1.266,2.49-1.929.957-.686,1.467-.9,2.023-1.986a41.991,41.991,0,0,1,1.954-4.208,11.82,11.82,0,0,1,2.857-2.667c1.079.13,2.185-.193,3.154.691.577.525.831,1.61,1.667,1.853s1.011-.369,1.619-.663c1.276-.618,1.557.464,2.775.726,1.376.3,1.872-.092,3.2.584a2.368,2.368,0,0,0,1.569.145,3.25,3.25,0,0,1,1.24-.013c1,.217,1.331,1.235,2.178,1.616a2.629,2.629,0,0,0,1.427.044,2.321,2.321,0,0,1,1.549.111c.5.309.319.738.9.929a4.785,4.785,0,0,0,1-.038c1.72-.06.978.324,2.023,1.369.629.629,1.9.477,2.617,1.074,1.284,1.067,1.695,3.113,2.9,4.368,1.229,1.281,2.588,1.544,4.192,2.08,1.388.461,2.592,1.455,3.987,1.974.947.356,1.8.206,2.711.467a9.279,9.279,0,0,1,1.572.868c.545.328.761.814,1.259,1.181a1.611,1.611,0,0,0,1.865,0,2.128,2.128,0,0,1,1.306-.285c1.265.24,1.3,3.061,1.55,4.032.572,2.261,1.738,2.27,2.794.464,2.446-4.179,8.018-3.006,12.219-3.428,1.714-.171,1.275-2.241,3.156-1.929,1.695.281,3.071,2.261,4.64,2.907,1.191.492,2.19,1.418,3.381,1.841a13.869,13.869,0,0,0,4.839.584,18.5,18.5,0,0,1,4.71.537,50.729,50.729,0,0,1,7.668,2.894c1.9.8,3.786,1.944,5.623,1.011.511.672.426,1.835,1.2,2.291a1.179,1.179,0,0,0,.82.088,1.761,1.761,0,0,1,.547-.016c.38.067.875.5,1.3.508h.015a.526.526,0,0,0,.171-.029c.463-.162.735-1.487.937-1.809.363-.584.722-1.066,1.063-1.644a27.1,27.1,0,0,1,2.383-2.961,26.03,26.03,0,0,1,1.985-2.816,8.026,8.026,0,0,1,1.218-.932,4.652,4.652,0,0,0,.809.454c1.191.492,2.19,1.418,3.38,1.841a13.885,13.885,0,0,0,4.84.584,18.478,18.478,0,0,1,4.709.537,50.631,50.631,0,0,1,7.67,2.894c1.9.8,3.786,1.944,5.623,1.011.511.672.427,1.835,1.2,2.291a1.181,1.181,0,0,0,.82.088,1.76,1.76,0,0,1,.547-.016c.38.067.875.5,1.3.508h.015a.527.527,0,0,0,.171-.029c.463-.162.735-1.487.937-1.809.363-.584.722-1.066,1.063-1.644a27.3,27.3,0,0,1,2.383-2.961,26.237,26.237,0,0,1,1.985-2.816c1.071-1.038,2.333-1.358,3.116-2.664.846-1.414,1.784-2.734,2.689-4.12.019-.032.039-.063.057-.1q.217-.384.426-.774c.245-.46.468-.932.693-1.4a24.473,24.473,0,0,1,3.725,1.751,90.388,90.388,0,0,0,9.024,3.9c1.475.514,3.205.413,4.513,1.426.468.363.779,1.225,1.442,1.317.547.078,1.371-.621,1.818-.814,2.023-.875,2.362-.427,4.01.869a10.746,10.746,0,0,0,6.768,2.081,15.727,15.727,0,0,1,3.4.367,5.148,5.148,0,0,0,1.013.048,5.313,5.313,0,0,1,.938.035,4.953,4.953,0,0,1,2.538,1.49c1.222,1.044,2.843,1.333,4.072,2.43,1.086.97,1.313,3.633,3.141,2.806.742-.337,1.546-2.215,2.068-2.929a15.7,15.7,0,0,1,1.963-2.462,10.915,10.915,0,0,0,2.917-3.724c.287-.628.589-1.232.9-1.834a3.8,3.8,0,0,1,.487.318c.47.363.779,1.225,1.442,1.317.547.078,1.373-.621,1.818-.814,2.024-.875,2.362-.427,4.012.869a10.741,10.741,0,0,0,6.766,2.081,15.738,15.738,0,0,1,3.406.367,5.149,5.149,0,0,0,1.013.048,5.318,5.318,0,0,1,.938.035,4.959,4.959,0,0,1,2.538,1.49c1.222,1.044,2.841,1.333,4.072,2.43,1.086.97,1.311,3.633,3.14,2.806.744-.337,1.547-2.215,2.068-2.929a15.782,15.782,0,0,1,1.963-2.462,10.9,10.9,0,0,0,2.917-3.724c.476-1.038.987-2.011,1.5-3.011a12.723,12.723,0,0,1,.534-1.287c.2-.252.681-.407.912-.692.451-.558.606-1.358,1.042-1.958a5.9,5.9,0,0,1,2.724-2.5,7.581,7.581,0,0,1,2.058-.322,10.506,10.506,0,0,0,2.437-.574c1.137-.452,1.563-1.266,2.49-1.929.957-.686,1.465-.9,2.023-1.986a41.374,41.374,0,0,1,1.954-4.208,12.382,12.382,0,0,1,3.2-2.9c1.332.634,2.778-.192,4,.928.577.525.831,1.61,1.667,1.853s1.011-.369,1.619-.663c1.276-.618,1.557.464,2.775.726,1.376.3,1.872-.092,3.2.584a2.369,2.369,0,0,0,1.569.145,3.249,3.249,0,0,1,1.24-.013c1,.217,1.331,1.235,2.178,1.616a2.63,2.63,0,0,0,1.427.044,2.321,2.321,0,0,1,1.548.111c.5.309.319.738.9.929a4.783,4.783,0,0,0,1-.038c1.72-.06.978.324,2.023,1.369.629.629,1.9.477,2.617,1.074,1.284,1.067,1.695,3.113,2.9,4.368,1.229,1.281,2.588,1.544,4.192,2.08,1.388.461,2.592,1.455,3.989,1.974.946.356,1.8.206,2.709.467a9.232,9.232,0,0,1,1.572.868c.544.328.761.814,1.259,1.181a1.611,1.611,0,0,0,1.865,0,2.13,2.13,0,0,1,1.306-.285c1.265.24,1.3,3.061,1.55,4.032.572,2.261,1.737,2.27,2.794.464,2.446-4.179,8.018-3.006,12.219-3.428,1.714-.171,1.275-2.241,3.156-1.929,1.7.281,3.071,2.261,4.64,2.907,1.191.492,2.189,1.418,3.381,1.841a13.868,13.868,0,0,0,4.839.584,18.5,18.5,0,0,1,4.71.537,50.729,50.729,0,0,1,7.668,2.894c1.9.8,3.786,1.944,5.623,1.011.511.672.427,1.835,1.2,2.291a1.179,1.179,0,0,0,.819.088,1.762,1.762,0,0,1,.547-.016c.38.067.875.5,1.3.508h.015a.524.524,0,0,0,.171-.029c.463-.162.735-1.487.937-1.809.363-.584.722-1.066,1.063-1.644a27.1,27.1,0,0,1,2.383-2.961,25.772,25.772,0,0,1,1.986-2.816,6.039,6.039,0,0,1,.676-.559c.053.025.1.06.157.081,1.193.492,2.191,1.418,3.381,1.841a13.876,13.876,0,0,0,4.839.584,18.508,18.508,0,0,1,4.712.537,50.716,50.716,0,0,1,7.668,2.894c1.9.8,3.785,1.944,5.623,1.011.511.672.426,1.835,1.2,2.291a1.179,1.179,0,0,0,.82.088,1.752,1.752,0,0,1,.546-.016c.382.067.877.5,1.3.508h.015a.527.527,0,0,0,.171-.029c.463-.162.735-1.487.937-1.809.364-.584.721-1.066,1.064-1.644a27.44,27.44,0,0,1,2.383-2.961,26.029,26.029,0,0,1,1.985-2.816c1.071-1.038,2.334-1.358,3.115-2.664.847-1.414,1.786-2.734,2.689-4.12.022-.032.039-.063.058-.1.146-.256.287-.514.426-.774.641-1.2,1.2-2.462,1.726-3.715a4.744,4.744,0,0,1,2.725,0,40.126,40.126,0,0,0,4.356.729c2.277.4,3.53,1.452,5.379,2.718a11.43,11.43,0,0,0,3.044,1.587,5.568,5.568,0,0,1,1.712.584c1.12.727,1.527,1.058,2.906.767a35.694,35.694,0,0,0,5.5-1.862,7.017,7.017,0,0,1,3.226-.5,10.336,10.336,0,0,0,2.383.223c1.749-.394,2.766-2.317,4.785-2.077,1.469.174,3.11,1.281,4.392,1.893a90.509,90.509,0,0,0,9.023,3.9c1.477.514,3.207.413,4.512,1.426.468.363.779,1.225,1.442,1.317.547.078,1.373-.621,1.818-.814,2.023-.875,2.364-.427,4.012.869a10.746,10.746,0,0,0,6.768,2.081,15.707,15.707,0,0,1,3.4.367,5.171,5.171,0,0,0,1.015.048,5.313,5.313,0,0,1,.938.035,4.964,4.964,0,0,1,2.538,1.49c1.222,1.044,2.841,1.333,4.072,2.43,1.086.97,1.313,3.633,3.14,2.806.743-.337,1.547-2.215,2.068-2.929a15.69,15.69,0,0,1,1.963-2.462,10.9,10.9,0,0,0,2.918-3.724c.474-1.038.985-2.011,1.5-3.011a12.388,12.388,0,0,1,.531-1.287c.2-.252.682-.407.912-.692.452-.558.606-1.358,1.044-1.958a5.907,5.907,0,0,1,2.722-2.5,7.622,7.622,0,0,1,2.061-.322,10.479,10.479,0,0,0,2.434-.574c1.139-.452,1.565-1.266,2.49-1.929.959-.686,1.467-.9,2.024-1.986a41.641,41.641,0,0,1,1.954-4.208,12.722,12.722,0,0,1,3.366-3.021,7.531,7.531,0,0,1,5.893-1.1,15.73,15.73,0,0,0,8.813-.867c1.2-.521,2.576-1.3,3.845-.467.866.569,1.2,1.712,1.854,2.472,1.557.039,2.567-2.986,4.271-3.369.891,1.206-.622,3.937,1.695,2.866a9.7,9.7,0,0,1,4.306-.992c1.127-.022,2.055-.493,3.17-.509,1.467-.023,1.8.665,2.784,1.617,1.5,1.453,3.242.078,4.681,1.39.578.525.831,1.61,1.669,1.853s1.01-.369,1.619-.663c1.275-.618,1.557.464,2.774.726,1.377.3,1.873-.092,3.2.584a2.369,2.369,0,0,0,1.569.145,3.25,3.25,0,0,1,1.24-.013c1,.217,1.331,1.235,2.179,1.616a2.624,2.624,0,0,0,1.426.044,2.326,2.326,0,0,1,1.55.111c.5.309.319.738.9.929a4.777,4.777,0,0,0,1-.038c1.72-.06.978.324,2.024,1.369.628.629,1.9.477,2.617,1.074,1.284,1.067,1.695,3.113,2.9,4.368,1.229,1.281,2.588,1.544,4.192,2.08,1.386.461,2.591,1.455,3.987,1.974.946.356,1.8.206,2.709.467a9.225,9.225,0,0,1,1.572.868c.546.328.762.814,1.259,1.181a1.611,1.611,0,0,0,1.865,0,2.133,2.133,0,0,1,1.307-.285c1.265.24,1.3,3.061,1.549,4.032.574,2.261,1.738,2.27,2.794.464,2.446-4.179,8.018-3.006,12.219-3.428,1.714-.171,1.276-2.241,3.157-1.929,1.695.281,3.071,2.261,4.64,2.907,1.19.492,2.188,1.418,3.38,1.841a13.884,13.884,0,0,0,4.84.584,18.485,18.485,0,0,1,4.709.537,50.674,50.674,0,0,1,7.668,2.894c1.9.8,3.788,1.944,5.623,1.011.511.672.429,1.835,1.2,2.291a1.18,1.18,0,0,0,.82.088,1.761,1.761,0,0,1,.547-.016c.381.067.875.5,1.3.508h.015a.522.522,0,0,0,.171-.029c.462-.162.736-1.487.937-1.809.364-.584.723-1.066,1.064-1.644a27.336,27.336,0,0,1,2.383-2.961,25.827,25.827,0,0,1,1.985-2.816c1.071-1.038,2.333-1.358,3.116-2.664.846-1.414,1.784-2.734,2.689-4.12.019-.032.038-.063.056-.1q.22-.384.427-.774c.565-1.063,1.064-2.169,1.534-3.276a5.01,5.01,0,0,1,3.87-.438,40.136,40.136,0,0,0,4.356.729c2.278.4,3.531,1.452,5.379,2.718a11.449,11.449,0,0,0,3.043,1.587,5.562,5.562,0,0,1,1.714.584c1.12.727,1.527,1.058,2.906.767a35.688,35.688,0,0,0,5.5-1.862,7.016,7.016,0,0,1,3.226-.5,10.334,10.334,0,0,0,2.383.223c1.749-.394,2.767-2.317,4.785-2.077,1.47.174,3.112,1.281,4.392,1.893a90.425,90.425,0,0,0,9.025,3.9c1.475.514,3.205.413,4.511,1.426.468.363.779,1.225,1.442,1.317.547.078,1.373-.621,1.818-.814,2.023-.875,2.364-.427,4.012.869a10.745,10.745,0,0,0,6.768,2.081,15.711,15.711,0,0,1,3.4.367,5.166,5.166,0,0,0,1.014.048,5.311,5.311,0,0,1,.938.035,4.966,4.966,0,0,1,2.538,1.49c1.222,1.044,2.841,1.333,4.072,2.43,1.086.97,1.313,3.633,3.14,2.806.743-.337,1.547-2.215,2.068-2.929a15.7,15.7,0,0,1,1.963-2.462,10.922,10.922,0,0,0,2.919-3.724c.474-1.038.985-2.011,1.5-3.011a12.309,12.309,0,0,1,.531-1.287c.2-.252.682-.407.912-.692.453-.558.606-1.358,1.044-1.958a5.909,5.909,0,0,1,2.723-2.5,7.618,7.618,0,0,1,2.061-.322,10.482,10.482,0,0,0,2.434-.574c1.139-.452,1.564-1.266,2.491-1.929.957-.686,1.467-.9,2.023-1.986a41.928,41.928,0,0,1,1.953-4.208,12.731,12.731,0,0,1,3.368-3.021,7.531,7.531,0,0,1,5.893-1.1,15.729,15.729,0,0,0,8.813-.867c1.2-.521,2.576-1.3,3.845-.467.867.569,1.2,1.712,1.855,2.472,1.557.039,2.567-2.986,4.271-3.369.891,1.206-.622,3.937,1.695,2.866a9.7,9.7,0,0,1,4.306-.992c1.127-.022,2.055-.493,3.171-.509,1.466-.023,1.8.665,2.784,1.617,1.5,1.453,3.242.078,4.681,1.39.578.525.831,1.61,1.669,1.853s1.01-.369,1.62-.663c1.273-.618,1.556.464,2.772.726,1.377.3,1.874-.092,3.2.584a2.368,2.368,0,0,0,1.569.145,3.251,3.251,0,0,1,1.24-.013c.995.217,1.33,1.235,2.179,1.616a2.625,2.625,0,0,0,1.426.044,2.326,2.326,0,0,1,1.55.111c.5.309.319.738.9.929a4.778,4.778,0,0,0,1-.038c1.72-.06.978.324,2.024,1.369.628.629,1.9.477,2.615,1.074,1.285,1.067,1.695,3.113,2.9,4.368,1.229,1.281,2.589,1.544,4.192,2.08,1.386.461,2.591,1.455,3.987,1.974.947.356,1.8.206,2.709.467a9.243,9.243,0,0,1,1.573.868c.544.328.761.814,1.259,1.181a1.609,1.609,0,0,0,1.864,0,2.132,2.132,0,0,1,1.307-.285c1.265.24,1.3,3.061,1.549,4.032.573,2.261,1.737,2.27,2.794.464,2.446-4.179,8.018-3.006,12.219-3.428,1.714-.171,1.276-2.241,3.157-1.929,1.695.281,3.071,2.261,4.64,2.907,1.192.492,2.188,1.418,3.38,1.841a13.885,13.885,0,0,0,4.84.584,18.483,18.483,0,0,1,4.708.537,50.66,50.66,0,0,1,7.668,2.894c1.9.8,3.788,1.944,5.623,1.011.511.672.429,1.835,1.2,2.291a1.176,1.176,0,0,0,.818.088,1.761,1.761,0,0,1,.547-.016c.38.067.875.5,1.3.508h.015a.518.518,0,0,0,.171-.029c.463-.162.736-1.487.937-1.809.365-.584.723-1.066,1.064-1.644a27.128,27.128,0,0,1,2.383-2.961,26.049,26.049,0,0,1,1.985-2.816c1.071-1.038,2.333-1.358,3.116-2.664.846-1.414,1.784-2.734,2.687-4.12.021-.032.04-.063.057-.1q.219-.384.427-.774c.645-1.213,1.212-2.481,1.739-3.743a15.621,15.621,0,0,0,.953-2.718c.164-.774-.079-.966-.19-1.553-.45-2.364-.059-5.2-.059-7.617V0Z" fill="#f3f3f5"/>
    </clipPath>
  </defs>
  <g id="Mask_Group_25" data-name="Mask Group 25" transform="translate(0 -1559)" clip-path="url(#clip-path)">
    <g id="Group_17745" data-name="Group 17745" transform="translate(3 0.051)">
      <g id="Group_17702" data-name="Group 17702" transform="matrix(1, 0.017, -0.017, 1, -323.952, 1558.949)">
        <g id="Group_17701" data-name="Group 17701" clip-path="url(#clip-path-2)">
          <path id="Path_47438" data-name="Path 47438" d="M0,0H1526.7V1577.619H0Z" transform="translate(-129.895 135.462) rotate(-46.231)" fill="#dadbe0"/>
        </g>
      </g>
    </g>
    <g id="Group_17711" data-name="Group 17711">
      <g id="Group_17702-2" data-name="Group 17702" transform="matrix(1, 0.017, -0.017, 1, -323.952, 1558.949)">
        <g id="Group_17701-2" data-name="Group 17701" clip-path="url(#clip-path-3)">
          <rect id="Rectangle_4414" data-name="Rectangle 4414" width="1526.697" height="1577.619" transform="translate(-129.895 135.462) rotate(-46.231)" fill="#f3f3f5"/>
        </g>
      </g>
    </g>
  </g>
</svg>
